%TF.GenerationSoftware,KiCad,Pcbnew,(5.1.9)-1*%
%TF.CreationDate,2021-06-02T16:01:08+02:00*%
%TF.ProjectId,LATE-9,4c415445-2d39-42e6-9b69-6361645f7063,rev?*%
%TF.SameCoordinates,Original*%
%TF.FileFunction,Copper,L2,Bot*%
%TF.FilePolarity,Positive*%
%FSLAX46Y46*%
G04 Gerber Fmt 4.6, Leading zero omitted, Abs format (unit mm)*
G04 Created by KiCad (PCBNEW (5.1.9)-1) date 2021-06-02 16:01:08*
%MOMM*%
%LPD*%
G01*
G04 APERTURE LIST*
%TA.AperFunction,ComponentPad*%
%ADD10C,1.752600*%
%TD*%
%TA.AperFunction,ComponentPad*%
%ADD11R,1.752600X1.752600*%
%TD*%
%TA.AperFunction,ComponentPad*%
%ADD12C,2.000000*%
%TD*%
%TA.AperFunction,ComponentPad*%
%ADD13C,1.397000*%
%TD*%
%TA.AperFunction,ComponentPad*%
%ADD14O,1.600000X1.600000*%
%TD*%
%TA.AperFunction,ComponentPad*%
%ADD15R,1.600000X1.600000*%
%TD*%
%TA.AperFunction,Conductor*%
%ADD16C,0.254000*%
%TD*%
%TA.AperFunction,Conductor*%
%ADD17C,0.100000*%
%TD*%
G04 APERTURE END LIST*
D10*
%TO.P,U1,24*%
%TO.N,Net-(U1-Pad24)*%
X63976250Y-46355000D03*
%TO.P,U1,12*%
%TO.N,COL0*%
X36036250Y-61595000D03*
%TO.P,U1,23*%
%TO.N,GND*%
X61436250Y-46355000D03*
%TO.P,U1,22*%
%TO.N,Net-(U1-Pad22)*%
X58896250Y-46355000D03*
%TO.P,U1,21*%
%TO.N,VCC*%
X56356250Y-46355000D03*
%TO.P,U1,20*%
%TO.N,Net-(U1-Pad20)*%
X53816250Y-46355000D03*
%TO.P,U1,19*%
%TO.N,Net-(U1-Pad19)*%
X51276250Y-46355000D03*
%TO.P,U1,18*%
%TO.N,Net-(U1-Pad18)*%
X48736250Y-46355000D03*
%TO.P,U1,17*%
%TO.N,Net-(U1-Pad17)*%
X46196250Y-46355000D03*
%TO.P,U1,16*%
%TO.N,Net-(U1-Pad16)*%
X43656250Y-46355000D03*
%TO.P,U1,15*%
%TO.N,ROW3*%
X41116250Y-46355000D03*
%TO.P,U1,14*%
%TO.N,ROW4*%
X38576250Y-46355000D03*
%TO.P,U1,13*%
%TO.N,ROW5*%
X36036250Y-46355000D03*
%TO.P,U1,11*%
%TO.N,ROW0*%
X38576250Y-61595000D03*
%TO.P,U1,10*%
%TO.N,ROW1*%
X41116250Y-61595000D03*
%TO.P,U1,9*%
%TO.N,ROW2*%
X43656250Y-61595000D03*
%TO.P,U1,8*%
%TO.N,COL1*%
X46196250Y-61595000D03*
%TO.P,U1,7*%
%TO.N,COL2*%
X48736250Y-61595000D03*
%TO.P,U1,6*%
%TO.N,SCL*%
X51276250Y-61595000D03*
%TO.P,U1,5*%
%TO.N,SDA*%
X53816250Y-61595000D03*
%TO.P,U1,4*%
%TO.N,GND*%
X56356250Y-61595000D03*
%TO.P,U1,3*%
X58896250Y-61595000D03*
%TO.P,U1,2*%
%TO.N,Net-(U1-Pad2)*%
X61436250Y-61595000D03*
D11*
%TO.P,U1,1*%
%TO.N,Net-(U1-Pad1)*%
X63976250Y-61595000D03*
%TD*%
D12*
%TO.P,SW18,3*%
%TO.N,Net-(SW17-Pad4)*%
X62706250Y-135468750D03*
%TO.P,SW18,1*%
%TO.N,Net-(SW18-Pad1)*%
X62706250Y-130968750D03*
%TO.P,SW18,4*%
%TO.N,Net-(SW18-Pad4)*%
X69206250Y-135468750D03*
%TO.P,SW18,2*%
%TO.N,Net-(D18-Pad2)*%
X69206250Y-130968750D03*
%TD*%
%TO.P,SW17,3*%
%TO.N,Net-(SW16-Pad4)*%
X46831250Y-135468750D03*
%TO.P,SW17,1*%
%TO.N,Net-(SW17-Pad1)*%
X46831250Y-130968750D03*
%TO.P,SW17,4*%
%TO.N,Net-(SW17-Pad4)*%
X53331250Y-135468750D03*
%TO.P,SW17,2*%
%TO.N,Net-(D17-Pad2)*%
X53331250Y-130968750D03*
%TD*%
%TO.P,SW16,3*%
%TO.N,ROW5*%
X30956250Y-135468750D03*
%TO.P,SW16,1*%
%TO.N,Net-(SW16-Pad1)*%
X30956250Y-130968750D03*
%TO.P,SW16,4*%
%TO.N,Net-(SW16-Pad4)*%
X37456250Y-135468750D03*
%TO.P,SW16,2*%
%TO.N,Net-(D16-Pad2)*%
X37456250Y-130968750D03*
%TD*%
%TO.P,SW15,3*%
%TO.N,Net-(SW14-Pad4)*%
X62706250Y-123562500D03*
%TO.P,SW15,1*%
%TO.N,Net-(SW15-Pad1)*%
X62706250Y-119062500D03*
%TO.P,SW15,4*%
%TO.N,Net-(SW15-Pad4)*%
X69206250Y-123562500D03*
%TO.P,SW15,2*%
%TO.N,Net-(D15-Pad2)*%
X69206250Y-119062500D03*
%TD*%
%TO.P,SW14,3*%
%TO.N,Net-(SW13-Pad4)*%
X46831250Y-123562500D03*
%TO.P,SW14,1*%
%TO.N,Net-(SW14-Pad1)*%
X46831250Y-119062500D03*
%TO.P,SW14,4*%
%TO.N,Net-(SW14-Pad4)*%
X53331250Y-123562500D03*
%TO.P,SW14,2*%
%TO.N,Net-(D14-Pad2)*%
X53331250Y-119062500D03*
%TD*%
%TO.P,SW13,3*%
%TO.N,ROW4*%
X30956250Y-123562500D03*
%TO.P,SW13,1*%
%TO.N,Net-(SW13-Pad1)*%
X30956250Y-119062500D03*
%TO.P,SW13,4*%
%TO.N,Net-(SW13-Pad4)*%
X37456250Y-123562500D03*
%TO.P,SW13,2*%
%TO.N,Net-(D13-Pad2)*%
X37456250Y-119062500D03*
%TD*%
%TO.P,SW12,3*%
%TO.N,Net-(SW11-Pad4)*%
X62706250Y-111656250D03*
%TO.P,SW12,1*%
%TO.N,Net-(SW12-Pad1)*%
X62706250Y-107156250D03*
%TO.P,SW12,4*%
%TO.N,Net-(SW12-Pad4)*%
X69206250Y-111656250D03*
%TO.P,SW12,2*%
%TO.N,Net-(D12-Pad2)*%
X69206250Y-107156250D03*
%TD*%
%TO.P,SW11,3*%
%TO.N,Net-(SW10-Pad4)*%
X46831250Y-111656250D03*
%TO.P,SW11,1*%
%TO.N,Net-(SW11-Pad1)*%
X46831250Y-107156250D03*
%TO.P,SW11,4*%
%TO.N,Net-(SW11-Pad4)*%
X53331250Y-111656250D03*
%TO.P,SW11,2*%
%TO.N,Net-(D11-Pad2)*%
X53331250Y-107156250D03*
%TD*%
%TO.P,SW10,3*%
%TO.N,ROW3*%
X30956250Y-111656250D03*
%TO.P,SW10,1*%
%TO.N,Net-(SW10-Pad1)*%
X30956250Y-107156250D03*
%TO.P,SW10,4*%
%TO.N,Net-(SW10-Pad4)*%
X37456250Y-111656250D03*
%TO.P,SW10,2*%
%TO.N,Net-(D10-Pad2)*%
X37456250Y-107156250D03*
%TD*%
%TO.P,SW9,3*%
%TO.N,Net-(SW8-Pad4)*%
X62706250Y-99750000D03*
%TO.P,SW9,1*%
%TO.N,Net-(SW9-Pad1)*%
X62706250Y-95250000D03*
%TO.P,SW9,4*%
%TO.N,Net-(SW9-Pad4)*%
X69206250Y-99750000D03*
%TO.P,SW9,2*%
%TO.N,Net-(D9-Pad2)*%
X69206250Y-95250000D03*
%TD*%
%TO.P,SW8,3*%
%TO.N,Net-(SW7-Pad4)*%
X46831250Y-99750000D03*
%TO.P,SW8,1*%
%TO.N,Net-(SW8-Pad1)*%
X46831250Y-95250000D03*
%TO.P,SW8,4*%
%TO.N,Net-(SW8-Pad4)*%
X53331250Y-99750000D03*
%TO.P,SW8,2*%
%TO.N,Net-(D8-Pad2)*%
X53331250Y-95250000D03*
%TD*%
%TO.P,SW7,3*%
%TO.N,ROW2*%
X30956250Y-99750000D03*
%TO.P,SW7,1*%
%TO.N,Net-(SW7-Pad1)*%
X30956250Y-95250000D03*
%TO.P,SW7,4*%
%TO.N,Net-(SW7-Pad4)*%
X37456250Y-99750000D03*
%TO.P,SW7,2*%
%TO.N,Net-(D7-Pad2)*%
X37456250Y-95250000D03*
%TD*%
%TO.P,SW6,3*%
%TO.N,Net-(SW5-Pad4)*%
X62706250Y-87843750D03*
%TO.P,SW6,1*%
%TO.N,Net-(SW6-Pad1)*%
X62706250Y-83343750D03*
%TO.P,SW6,4*%
%TO.N,Net-(SW6-Pad4)*%
X69206250Y-87843750D03*
%TO.P,SW6,2*%
%TO.N,Net-(D6-Pad2)*%
X69206250Y-83343750D03*
%TD*%
%TO.P,SW5,3*%
%TO.N,Net-(SW4-Pad4)*%
X46831250Y-87843750D03*
%TO.P,SW5,1*%
%TO.N,Net-(SW5-Pad1)*%
X46831250Y-83343750D03*
%TO.P,SW5,4*%
%TO.N,Net-(SW5-Pad4)*%
X53331250Y-87843750D03*
%TO.P,SW5,2*%
%TO.N,Net-(D5-Pad2)*%
X53331250Y-83343750D03*
%TD*%
%TO.P,SW4,3*%
%TO.N,ROW1*%
X30956250Y-87843750D03*
%TO.P,SW4,1*%
%TO.N,Net-(SW4-Pad1)*%
X30956250Y-83343750D03*
%TO.P,SW4,4*%
%TO.N,Net-(SW4-Pad4)*%
X37456250Y-87843750D03*
%TO.P,SW4,2*%
%TO.N,Net-(D4-Pad2)*%
X37456250Y-83343750D03*
%TD*%
%TO.P,SW3,3*%
%TO.N,Net-(SW2-Pad4)*%
X62706250Y-75937500D03*
%TO.P,SW3,1*%
%TO.N,Net-(SW3-Pad1)*%
X62706250Y-71437500D03*
%TO.P,SW3,4*%
%TO.N,Net-(SW3-Pad4)*%
X69206250Y-75937500D03*
%TO.P,SW3,2*%
%TO.N,Net-(D3-Pad2)*%
X69206250Y-71437500D03*
%TD*%
%TO.P,SW2,3*%
%TO.N,Net-(SW1-Pad4)*%
X46831250Y-75937500D03*
%TO.P,SW2,1*%
%TO.N,Net-(SW2-Pad1)*%
X46831250Y-71437500D03*
%TO.P,SW2,4*%
%TO.N,Net-(SW2-Pad4)*%
X53331250Y-75937500D03*
%TO.P,SW2,2*%
%TO.N,Net-(D2-Pad2)*%
X53331250Y-71437500D03*
%TD*%
%TO.P,SW1,3*%
%TO.N,ROW0*%
X30956250Y-75937500D03*
%TO.P,SW1,1*%
%TO.N,Net-(SW1-Pad1)*%
X30956250Y-71437500D03*
%TO.P,SW1,4*%
%TO.N,Net-(SW1-Pad4)*%
X37456250Y-75937500D03*
%TO.P,SW1,2*%
%TO.N,Net-(D1-Pad2)*%
X37456250Y-71437500D03*
%TD*%
D13*
%TO.P,OL1,1*%
%TO.N,SDA*%
X29368750Y-50165000D03*
%TO.P,OL1,2*%
%TO.N,SCL*%
X29368750Y-52705000D03*
%TO.P,OL1,3*%
%TO.N,VCC*%
X29368750Y-55245000D03*
%TO.P,OL1,4*%
%TO.N,GND*%
X29368750Y-57785000D03*
%TD*%
D14*
%TO.P,D18,2*%
%TO.N,Net-(D18-Pad2)*%
X68580000Y-127793750D03*
D15*
%TO.P,D18,1*%
%TO.N,COL2*%
X63500000Y-127793750D03*
%TD*%
D14*
%TO.P,D17,2*%
%TO.N,Net-(D17-Pad2)*%
X52705000Y-127793750D03*
D15*
%TO.P,D17,1*%
%TO.N,COL1*%
X47625000Y-127793750D03*
%TD*%
D14*
%TO.P,D16,2*%
%TO.N,Net-(D16-Pad2)*%
X36830000Y-127793750D03*
D15*
%TO.P,D16,1*%
%TO.N,COL0*%
X31750000Y-127793750D03*
%TD*%
D14*
%TO.P,D15,2*%
%TO.N,Net-(D15-Pad2)*%
X68580000Y-115887500D03*
D15*
%TO.P,D15,1*%
%TO.N,COL2*%
X63500000Y-115887500D03*
%TD*%
D14*
%TO.P,D14,2*%
%TO.N,Net-(D14-Pad2)*%
X52705000Y-115887500D03*
D15*
%TO.P,D14,1*%
%TO.N,COL1*%
X47625000Y-115887500D03*
%TD*%
D14*
%TO.P,D13,2*%
%TO.N,Net-(D13-Pad2)*%
X36830000Y-115887500D03*
D15*
%TO.P,D13,1*%
%TO.N,COL0*%
X31750000Y-115887500D03*
%TD*%
D14*
%TO.P,D12,2*%
%TO.N,Net-(D12-Pad2)*%
X68580000Y-103981250D03*
D15*
%TO.P,D12,1*%
%TO.N,COL2*%
X63500000Y-103981250D03*
%TD*%
D14*
%TO.P,D11,2*%
%TO.N,Net-(D11-Pad2)*%
X52705000Y-103981250D03*
D15*
%TO.P,D11,1*%
%TO.N,COL1*%
X47625000Y-103981250D03*
%TD*%
D14*
%TO.P,D10,2*%
%TO.N,Net-(D10-Pad2)*%
X36830000Y-103981250D03*
D15*
%TO.P,D10,1*%
%TO.N,COL0*%
X31750000Y-103981250D03*
%TD*%
D14*
%TO.P,D9,2*%
%TO.N,Net-(D9-Pad2)*%
X68580000Y-92075000D03*
D15*
%TO.P,D9,1*%
%TO.N,COL2*%
X63500000Y-92075000D03*
%TD*%
D14*
%TO.P,D8,2*%
%TO.N,Net-(D8-Pad2)*%
X52705000Y-92075000D03*
D15*
%TO.P,D8,1*%
%TO.N,COL1*%
X47625000Y-92075000D03*
%TD*%
D14*
%TO.P,D7,2*%
%TO.N,Net-(D7-Pad2)*%
X36830000Y-92075000D03*
D15*
%TO.P,D7,1*%
%TO.N,COL0*%
X31750000Y-92075000D03*
%TD*%
D14*
%TO.P,D6,2*%
%TO.N,Net-(D6-Pad2)*%
X68580000Y-80168750D03*
D15*
%TO.P,D6,1*%
%TO.N,COL2*%
X63500000Y-80168750D03*
%TD*%
D14*
%TO.P,D5,2*%
%TO.N,Net-(D5-Pad2)*%
X52705000Y-80168750D03*
D15*
%TO.P,D5,1*%
%TO.N,COL1*%
X47625000Y-80168750D03*
%TD*%
D14*
%TO.P,D4,2*%
%TO.N,Net-(D4-Pad2)*%
X36830000Y-80168750D03*
D15*
%TO.P,D4,1*%
%TO.N,COL0*%
X31750000Y-80168750D03*
%TD*%
D14*
%TO.P,D3,2*%
%TO.N,Net-(D3-Pad2)*%
X68580000Y-68262500D03*
D15*
%TO.P,D3,1*%
%TO.N,COL2*%
X63500000Y-68262500D03*
%TD*%
D14*
%TO.P,D2,2*%
%TO.N,Net-(D2-Pad2)*%
X52705000Y-68262500D03*
D15*
%TO.P,D2,1*%
%TO.N,COL1*%
X47625000Y-68262500D03*
%TD*%
D14*
%TO.P,D1,2*%
%TO.N,Net-(D1-Pad2)*%
X36830000Y-68262500D03*
D15*
%TO.P,D1,1*%
%TO.N,COL0*%
X31750000Y-68262500D03*
%TD*%
D16*
%TO.N,ROW0*%
X38893750Y-61912500D02*
X38576250Y-61595000D01*
X34925000Y-63500000D02*
X38100000Y-63500000D01*
X33337500Y-65087500D02*
X34925000Y-63500000D01*
X33337500Y-73556250D02*
X33337500Y-65087500D01*
X30956250Y-75937500D02*
X33337500Y-73556250D01*
X38576250Y-63023750D02*
X38100000Y-63500000D01*
X38576250Y-61595000D02*
X38576250Y-63023750D01*
%TO.N,ROW1*%
X40481250Y-64293750D02*
X41116250Y-63658750D01*
X41116250Y-63658750D02*
X41116250Y-61595000D01*
X34131250Y-65881250D02*
X35718750Y-64293750D01*
X34131250Y-84668750D02*
X34131250Y-65881250D01*
X35718750Y-64293750D02*
X40481250Y-64293750D01*
X30956250Y-87843750D02*
X34131250Y-84668750D01*
%TO.N,ROW2*%
X43656250Y-63500000D02*
X43656250Y-61595000D01*
X42068750Y-65087500D02*
X43656250Y-63500000D01*
X36512500Y-65087500D02*
X42068750Y-65087500D01*
X34925000Y-66675000D02*
X36512500Y-65087500D01*
X34925000Y-95781250D02*
X34925000Y-66675000D01*
X30956250Y-99750000D02*
X34925000Y-95781250D01*
%TO.N,ROW3*%
X41116250Y-52546250D02*
X41116250Y-46355000D01*
X29368750Y-64293750D02*
X41116250Y-52546250D01*
X29368750Y-110068750D02*
X29368750Y-64293750D01*
X30956250Y-111656250D02*
X29368750Y-110068750D01*
%TO.N,ROW4*%
X38576250Y-53498750D02*
X38576250Y-46355000D01*
X28575000Y-63500000D02*
X38576250Y-53498750D01*
X28575000Y-121181250D02*
X28575000Y-63500000D01*
X30956250Y-123562500D02*
X28575000Y-121181250D01*
%TO.N,ROW5*%
X36036250Y-54451250D02*
X36036250Y-46355000D01*
X27781250Y-132293750D02*
X27781250Y-62706250D01*
X27781250Y-62706250D02*
X36036250Y-54451250D01*
X30956250Y-135468750D02*
X27781250Y-132293750D01*
%TO.N,Net-(SW1-Pad4)*%
X37456250Y-75937500D02*
X46831250Y-75937500D01*
%TO.N,Net-(SW2-Pad4)*%
X53331250Y-75937500D02*
X62706250Y-75937500D01*
%TO.N,Net-(SW4-Pad4)*%
X46831250Y-87843750D02*
X37456250Y-87843750D01*
%TO.N,Net-(SW5-Pad4)*%
X62706250Y-87843750D02*
X53331250Y-87843750D01*
%TO.N,Net-(SW7-Pad4)*%
X37456250Y-99750000D02*
X46831250Y-99750000D01*
%TO.N,Net-(SW8-Pad4)*%
X53331250Y-99750000D02*
X62706250Y-99750000D01*
%TO.N,Net-(SW10-Pad4)*%
X46831250Y-111656250D02*
X37456250Y-111656250D01*
%TO.N,Net-(SW11-Pad4)*%
X62706250Y-111656250D02*
X53331250Y-111656250D01*
%TO.N,Net-(SW13-Pad4)*%
X37456250Y-123562500D02*
X46831250Y-123562500D01*
%TO.N,Net-(SW14-Pad4)*%
X53331250Y-123562500D02*
X62706250Y-123562500D01*
%TO.N,Net-(SW16-Pad4)*%
X37456250Y-135468750D02*
X46831250Y-135468750D01*
%TO.N,Net-(SW17-Pad4)*%
X53331250Y-135468750D02*
X62706250Y-135468750D01*
%TD*%
%TO.N,GND*%
X72410788Y-43543269D02*
X72583487Y-43595410D01*
X72742768Y-43680102D01*
X72882569Y-43794119D01*
X72997558Y-43933117D01*
X73083360Y-44091805D01*
X73136705Y-44264135D01*
X73158750Y-44473880D01*
X73158750Y-45211331D01*
X73155557Y-45243750D01*
X73155571Y-45243892D01*
X73153098Y-45269114D01*
X73145732Y-45293510D01*
X73133766Y-45316016D01*
X73117659Y-45335764D01*
X73098023Y-45352009D01*
X73075599Y-45364133D01*
X73051258Y-45371668D01*
X72995775Y-45377500D01*
X69882419Y-45377500D01*
X69850000Y-45374307D01*
X69732161Y-45385913D01*
X69720617Y-45387050D01*
X69596207Y-45424790D01*
X69481550Y-45486075D01*
X69381052Y-45568552D01*
X69298575Y-45669050D01*
X69237290Y-45783707D01*
X69199550Y-45908117D01*
X69186807Y-46037500D01*
X69190000Y-46069919D01*
X69190001Y-61880071D01*
X69186807Y-61912500D01*
X69199550Y-62041883D01*
X69237290Y-62166293D01*
X69298575Y-62280950D01*
X69381052Y-62381448D01*
X69481550Y-62463925D01*
X69596207Y-62525210D01*
X69720617Y-62562950D01*
X69817581Y-62572500D01*
X69850000Y-62575693D01*
X69882419Y-62572500D01*
X72992721Y-62572500D01*
X73050362Y-62578152D01*
X73074763Y-62585519D01*
X73097265Y-62597483D01*
X73117014Y-62613591D01*
X73133259Y-62633227D01*
X73145383Y-62655651D01*
X73152918Y-62679992D01*
X73158750Y-62735476D01*
X73158750Y-65754250D01*
X42437820Y-65754250D01*
X42494142Y-65724145D01*
X42610172Y-65628922D01*
X42634034Y-65599846D01*
X44168603Y-64065278D01*
X44197672Y-64041422D01*
X44292895Y-63925392D01*
X44363652Y-63793015D01*
X44407224Y-63649378D01*
X44418250Y-63537426D01*
X44418250Y-63537424D01*
X44421936Y-63500001D01*
X44418250Y-63462574D01*
X44418250Y-62903473D01*
X44619648Y-62768904D01*
X44830154Y-62558398D01*
X44926250Y-62414580D01*
X45022346Y-62558398D01*
X45232852Y-62768904D01*
X45480381Y-62934297D01*
X45755420Y-63048222D01*
X46047400Y-63106300D01*
X46345100Y-63106300D01*
X46637080Y-63048222D01*
X46912119Y-62934297D01*
X47159648Y-62768904D01*
X47370154Y-62558398D01*
X47466250Y-62414580D01*
X47562346Y-62558398D01*
X47772852Y-62768904D01*
X48020381Y-62934297D01*
X48295420Y-63048222D01*
X48587400Y-63106300D01*
X48885100Y-63106300D01*
X49177080Y-63048222D01*
X49452119Y-62934297D01*
X49699648Y-62768904D01*
X49910154Y-62558398D01*
X50006250Y-62414580D01*
X50102346Y-62558398D01*
X50312852Y-62768904D01*
X50560381Y-62934297D01*
X50835420Y-63048222D01*
X51127400Y-63106300D01*
X51425100Y-63106300D01*
X51717080Y-63048222D01*
X51992119Y-62934297D01*
X52239648Y-62768904D01*
X52450154Y-62558398D01*
X52546250Y-62414580D01*
X52642346Y-62558398D01*
X52852852Y-62768904D01*
X53100381Y-62934297D01*
X53375420Y-63048222D01*
X53667400Y-63106300D01*
X53965100Y-63106300D01*
X54257080Y-63048222D01*
X54532119Y-62934297D01*
X54779648Y-62768904D01*
X54906383Y-62642169D01*
X55488687Y-62642169D01*
X55569504Y-62893929D01*
X55838029Y-63022457D01*
X56126469Y-63096129D01*
X56423741Y-63112113D01*
X56718417Y-63069796D01*
X56999177Y-62970802D01*
X57142996Y-62893929D01*
X57223813Y-62642169D01*
X58028687Y-62642169D01*
X58109504Y-62893929D01*
X58378029Y-63022457D01*
X58666469Y-63096129D01*
X58963741Y-63112113D01*
X59258417Y-63069796D01*
X59539177Y-62970802D01*
X59682996Y-62893929D01*
X59763813Y-62642169D01*
X58896250Y-61774605D01*
X58028687Y-62642169D01*
X57223813Y-62642169D01*
X56356250Y-61774605D01*
X55488687Y-62642169D01*
X54906383Y-62642169D01*
X54990154Y-62558398D01*
X55099205Y-62395191D01*
X55309081Y-62462563D01*
X56176645Y-61595000D01*
X56535855Y-61595000D01*
X57403419Y-62462563D01*
X57626250Y-62391032D01*
X57849081Y-62462563D01*
X58716645Y-61595000D01*
X59075855Y-61595000D01*
X59943419Y-62462563D01*
X60153295Y-62395191D01*
X60262346Y-62558398D01*
X60472852Y-62768904D01*
X60720381Y-62934297D01*
X60995420Y-63048222D01*
X61287400Y-63106300D01*
X61585100Y-63106300D01*
X61877080Y-63048222D01*
X62152119Y-62934297D01*
X62399648Y-62768904D01*
X62497094Y-62671458D01*
X62510448Y-62715480D01*
X62569413Y-62825794D01*
X62648765Y-62922485D01*
X62745456Y-63001837D01*
X62855770Y-63060802D01*
X62975468Y-63097112D01*
X63099950Y-63109372D01*
X64852550Y-63109372D01*
X64977032Y-63097112D01*
X65096730Y-63060802D01*
X65207044Y-63001837D01*
X65303735Y-62922485D01*
X65383087Y-62825794D01*
X65442052Y-62715480D01*
X65478362Y-62595782D01*
X65490622Y-62471300D01*
X65490622Y-60718700D01*
X65478362Y-60594218D01*
X65442052Y-60474520D01*
X65383087Y-60364206D01*
X65303735Y-60267515D01*
X65207044Y-60188163D01*
X65096730Y-60129198D01*
X64977032Y-60092888D01*
X64852550Y-60080628D01*
X63099950Y-60080628D01*
X62975468Y-60092888D01*
X62855770Y-60129198D01*
X62745456Y-60188163D01*
X62648765Y-60267515D01*
X62569413Y-60364206D01*
X62510448Y-60474520D01*
X62497094Y-60518542D01*
X62399648Y-60421096D01*
X62152119Y-60255703D01*
X61877080Y-60141778D01*
X61585100Y-60083700D01*
X61287400Y-60083700D01*
X60995420Y-60141778D01*
X60720381Y-60255703D01*
X60472852Y-60421096D01*
X60262346Y-60631602D01*
X60153295Y-60794809D01*
X59943419Y-60727437D01*
X59075855Y-61595000D01*
X58716645Y-61595000D01*
X57849081Y-60727437D01*
X57626250Y-60798968D01*
X57403419Y-60727437D01*
X56535855Y-61595000D01*
X56176645Y-61595000D01*
X55309081Y-60727437D01*
X55099205Y-60794809D01*
X54990154Y-60631602D01*
X54906383Y-60547831D01*
X55488687Y-60547831D01*
X56356250Y-61415395D01*
X57223813Y-60547831D01*
X58028687Y-60547831D01*
X58896250Y-61415395D01*
X59763813Y-60547831D01*
X59682996Y-60296071D01*
X59414471Y-60167543D01*
X59126031Y-60093871D01*
X58828759Y-60077887D01*
X58534083Y-60120204D01*
X58253323Y-60219198D01*
X58109504Y-60296071D01*
X58028687Y-60547831D01*
X57223813Y-60547831D01*
X57142996Y-60296071D01*
X56874471Y-60167543D01*
X56586031Y-60093871D01*
X56288759Y-60077887D01*
X55994083Y-60120204D01*
X55713323Y-60219198D01*
X55569504Y-60296071D01*
X55488687Y-60547831D01*
X54906383Y-60547831D01*
X54779648Y-60421096D01*
X54532119Y-60255703D01*
X54257080Y-60141778D01*
X53965100Y-60083700D01*
X53667400Y-60083700D01*
X53375420Y-60141778D01*
X53100381Y-60255703D01*
X52852852Y-60421096D01*
X52642346Y-60631602D01*
X52546250Y-60775420D01*
X52450154Y-60631602D01*
X52239648Y-60421096D01*
X51992119Y-60255703D01*
X51717080Y-60141778D01*
X51425100Y-60083700D01*
X51127400Y-60083700D01*
X50835420Y-60141778D01*
X50560381Y-60255703D01*
X50312852Y-60421096D01*
X50102346Y-60631602D01*
X50006250Y-60775420D01*
X49910154Y-60631602D01*
X49699648Y-60421096D01*
X49452119Y-60255703D01*
X49177080Y-60141778D01*
X48885100Y-60083700D01*
X48587400Y-60083700D01*
X48295420Y-60141778D01*
X48020381Y-60255703D01*
X47772852Y-60421096D01*
X47562346Y-60631602D01*
X47466250Y-60775420D01*
X47370154Y-60631602D01*
X47159648Y-60421096D01*
X46912119Y-60255703D01*
X46637080Y-60141778D01*
X46345100Y-60083700D01*
X46047400Y-60083700D01*
X45755420Y-60141778D01*
X45480381Y-60255703D01*
X45232852Y-60421096D01*
X45022346Y-60631602D01*
X44926250Y-60775420D01*
X44830154Y-60631602D01*
X44619648Y-60421096D01*
X44372119Y-60255703D01*
X44097080Y-60141778D01*
X43805100Y-60083700D01*
X43507400Y-60083700D01*
X43215420Y-60141778D01*
X42940381Y-60255703D01*
X42692852Y-60421096D01*
X42482346Y-60631602D01*
X42386250Y-60775420D01*
X42290154Y-60631602D01*
X42079648Y-60421096D01*
X41832119Y-60255703D01*
X41557080Y-60141778D01*
X41265100Y-60083700D01*
X40967400Y-60083700D01*
X40675420Y-60141778D01*
X40400381Y-60255703D01*
X40152852Y-60421096D01*
X39942346Y-60631602D01*
X39846250Y-60775420D01*
X39750154Y-60631602D01*
X39539648Y-60421096D01*
X39292119Y-60255703D01*
X39017080Y-60141778D01*
X38725100Y-60083700D01*
X38427400Y-60083700D01*
X38135420Y-60141778D01*
X37860381Y-60255703D01*
X37612852Y-60421096D01*
X37402346Y-60631602D01*
X37306250Y-60775420D01*
X37210154Y-60631602D01*
X36999648Y-60421096D01*
X36752119Y-60255703D01*
X36477080Y-60141778D01*
X36185100Y-60083700D01*
X35887400Y-60083700D01*
X35595420Y-60141778D01*
X35320381Y-60255703D01*
X35072852Y-60421096D01*
X34862346Y-60631602D01*
X34696953Y-60879131D01*
X34583028Y-61154170D01*
X34524950Y-61446150D01*
X34524950Y-61743850D01*
X34583028Y-62035830D01*
X34696953Y-62310869D01*
X34862346Y-62558398D01*
X35041948Y-62738000D01*
X34962422Y-62738000D01*
X34924999Y-62734314D01*
X34887576Y-62738000D01*
X34887574Y-62738000D01*
X34775622Y-62749026D01*
X34631985Y-62792598D01*
X34499608Y-62863355D01*
X34383578Y-62958578D01*
X34359721Y-62987648D01*
X32825149Y-64522221D01*
X32796079Y-64546078D01*
X32772222Y-64575148D01*
X32772221Y-64575149D01*
X32700855Y-64662108D01*
X32630099Y-64794485D01*
X32586527Y-64938122D01*
X32571814Y-65087500D01*
X32575501Y-65124933D01*
X32575501Y-65754250D01*
X30130750Y-65754250D01*
X30130750Y-64609380D01*
X41628603Y-53111528D01*
X41657672Y-53087672D01*
X41685022Y-53054346D01*
X41752895Y-52971643D01*
X41823651Y-52839266D01*
X41823652Y-52839265D01*
X41867224Y-52695628D01*
X41878250Y-52583676D01*
X41878250Y-52583673D01*
X41881936Y-52546250D01*
X41878250Y-52508827D01*
X41878250Y-47663473D01*
X42079648Y-47528904D01*
X42290154Y-47318398D01*
X42386250Y-47174580D01*
X42482346Y-47318398D01*
X42692852Y-47528904D01*
X42940381Y-47694297D01*
X43215420Y-47808222D01*
X43507400Y-47866300D01*
X43805100Y-47866300D01*
X44097080Y-47808222D01*
X44372119Y-47694297D01*
X44619648Y-47528904D01*
X44830154Y-47318398D01*
X44926250Y-47174580D01*
X45022346Y-47318398D01*
X45232852Y-47528904D01*
X45480381Y-47694297D01*
X45755420Y-47808222D01*
X46047400Y-47866300D01*
X46345100Y-47866300D01*
X46637080Y-47808222D01*
X46912119Y-47694297D01*
X47159648Y-47528904D01*
X47370154Y-47318398D01*
X47466250Y-47174580D01*
X47562346Y-47318398D01*
X47772852Y-47528904D01*
X48020381Y-47694297D01*
X48295420Y-47808222D01*
X48587400Y-47866300D01*
X48885100Y-47866300D01*
X49177080Y-47808222D01*
X49452119Y-47694297D01*
X49699648Y-47528904D01*
X49910154Y-47318398D01*
X50006250Y-47174580D01*
X50102346Y-47318398D01*
X50312852Y-47528904D01*
X50560381Y-47694297D01*
X50835420Y-47808222D01*
X51127400Y-47866300D01*
X51425100Y-47866300D01*
X51717080Y-47808222D01*
X51992119Y-47694297D01*
X52239648Y-47528904D01*
X52450154Y-47318398D01*
X52546250Y-47174580D01*
X52642346Y-47318398D01*
X52852852Y-47528904D01*
X53100381Y-47694297D01*
X53375420Y-47808222D01*
X53667400Y-47866300D01*
X53965100Y-47866300D01*
X54257080Y-47808222D01*
X54532119Y-47694297D01*
X54779648Y-47528904D01*
X54990154Y-47318398D01*
X55086250Y-47174580D01*
X55182346Y-47318398D01*
X55392852Y-47528904D01*
X55640381Y-47694297D01*
X55915420Y-47808222D01*
X56207400Y-47866300D01*
X56505100Y-47866300D01*
X56797080Y-47808222D01*
X57072119Y-47694297D01*
X57319648Y-47528904D01*
X57530154Y-47318398D01*
X57626250Y-47174580D01*
X57722346Y-47318398D01*
X57932852Y-47528904D01*
X58180381Y-47694297D01*
X58455420Y-47808222D01*
X58747400Y-47866300D01*
X59045100Y-47866300D01*
X59337080Y-47808222D01*
X59612119Y-47694297D01*
X59859648Y-47528904D01*
X59986383Y-47402169D01*
X60568687Y-47402169D01*
X60649504Y-47653929D01*
X60918029Y-47782457D01*
X61206469Y-47856129D01*
X61503741Y-47872113D01*
X61798417Y-47829796D01*
X62079177Y-47730802D01*
X62222996Y-47653929D01*
X62303813Y-47402169D01*
X61436250Y-46534605D01*
X60568687Y-47402169D01*
X59986383Y-47402169D01*
X60070154Y-47318398D01*
X60179205Y-47155191D01*
X60389081Y-47222563D01*
X61256645Y-46355000D01*
X61615855Y-46355000D01*
X62483419Y-47222563D01*
X62693295Y-47155191D01*
X62802346Y-47318398D01*
X63012852Y-47528904D01*
X63260381Y-47694297D01*
X63535420Y-47808222D01*
X63827400Y-47866300D01*
X64125100Y-47866300D01*
X64417080Y-47808222D01*
X64692119Y-47694297D01*
X64939648Y-47528904D01*
X65150154Y-47318398D01*
X65315547Y-47070869D01*
X65429472Y-46795830D01*
X65487550Y-46503850D01*
X65487550Y-46206150D01*
X65429472Y-45914170D01*
X65315547Y-45639131D01*
X65150154Y-45391602D01*
X64939648Y-45181096D01*
X64692119Y-45015703D01*
X64417080Y-44901778D01*
X64125100Y-44843700D01*
X63827400Y-44843700D01*
X63535420Y-44901778D01*
X63260381Y-45015703D01*
X63012852Y-45181096D01*
X62802346Y-45391602D01*
X62693295Y-45554809D01*
X62483419Y-45487437D01*
X61615855Y-46355000D01*
X61256645Y-46355000D01*
X60389081Y-45487437D01*
X60179205Y-45554809D01*
X60070154Y-45391602D01*
X59986383Y-45307831D01*
X60568687Y-45307831D01*
X61436250Y-46175395D01*
X62303813Y-45307831D01*
X62222996Y-45056071D01*
X61954471Y-44927543D01*
X61666031Y-44853871D01*
X61368759Y-44837887D01*
X61074083Y-44880204D01*
X60793323Y-44979198D01*
X60649504Y-45056071D01*
X60568687Y-45307831D01*
X59986383Y-45307831D01*
X59859648Y-45181096D01*
X59612119Y-45015703D01*
X59337080Y-44901778D01*
X59045100Y-44843700D01*
X58747400Y-44843700D01*
X58455420Y-44901778D01*
X58180381Y-45015703D01*
X57932852Y-45181096D01*
X57722346Y-45391602D01*
X57626250Y-45535420D01*
X57530154Y-45391602D01*
X57319648Y-45181096D01*
X57072119Y-45015703D01*
X56797080Y-44901778D01*
X56505100Y-44843700D01*
X56207400Y-44843700D01*
X55915420Y-44901778D01*
X55640381Y-45015703D01*
X55392852Y-45181096D01*
X55182346Y-45391602D01*
X55086250Y-45535420D01*
X54990154Y-45391602D01*
X54779648Y-45181096D01*
X54532119Y-45015703D01*
X54257080Y-44901778D01*
X53965100Y-44843700D01*
X53667400Y-44843700D01*
X53375420Y-44901778D01*
X53100381Y-45015703D01*
X52852852Y-45181096D01*
X52642346Y-45391602D01*
X52546250Y-45535420D01*
X52450154Y-45391602D01*
X52239648Y-45181096D01*
X51992119Y-45015703D01*
X51717080Y-44901778D01*
X51425100Y-44843700D01*
X51127400Y-44843700D01*
X50835420Y-44901778D01*
X50560381Y-45015703D01*
X50312852Y-45181096D01*
X50102346Y-45391602D01*
X50006250Y-45535420D01*
X49910154Y-45391602D01*
X49699648Y-45181096D01*
X49452119Y-45015703D01*
X49177080Y-44901778D01*
X48885100Y-44843700D01*
X48587400Y-44843700D01*
X48295420Y-44901778D01*
X48020381Y-45015703D01*
X47772852Y-45181096D01*
X47562346Y-45391602D01*
X47466250Y-45535420D01*
X47370154Y-45391602D01*
X47159648Y-45181096D01*
X46912119Y-45015703D01*
X46637080Y-44901778D01*
X46345100Y-44843700D01*
X46047400Y-44843700D01*
X45755420Y-44901778D01*
X45480381Y-45015703D01*
X45232852Y-45181096D01*
X45022346Y-45391602D01*
X44926250Y-45535420D01*
X44830154Y-45391602D01*
X44619648Y-45181096D01*
X44372119Y-45015703D01*
X44097080Y-44901778D01*
X43805100Y-44843700D01*
X43507400Y-44843700D01*
X43215420Y-44901778D01*
X42940381Y-45015703D01*
X42692852Y-45181096D01*
X42482346Y-45391602D01*
X42386250Y-45535420D01*
X42290154Y-45391602D01*
X42079648Y-45181096D01*
X41832119Y-45015703D01*
X41557080Y-44901778D01*
X41265100Y-44843700D01*
X40967400Y-44843700D01*
X40675420Y-44901778D01*
X40400381Y-45015703D01*
X40152852Y-45181096D01*
X39942346Y-45391602D01*
X39846250Y-45535420D01*
X39750154Y-45391602D01*
X39539648Y-45181096D01*
X39292119Y-45015703D01*
X39017080Y-44901778D01*
X38725100Y-44843700D01*
X38427400Y-44843700D01*
X38135420Y-44901778D01*
X37860381Y-45015703D01*
X37612852Y-45181096D01*
X37402346Y-45391602D01*
X37306250Y-45535420D01*
X37210154Y-45391602D01*
X36999648Y-45181096D01*
X36752119Y-45015703D01*
X36477080Y-44901778D01*
X36185100Y-44843700D01*
X35887400Y-44843700D01*
X35595420Y-44901778D01*
X35320381Y-45015703D01*
X35072852Y-45181096D01*
X34862346Y-45391602D01*
X34696953Y-45639131D01*
X34583028Y-45914170D01*
X34524950Y-46206150D01*
X34524950Y-46503850D01*
X34583028Y-46795830D01*
X34696953Y-47070869D01*
X34862346Y-47318398D01*
X35072852Y-47528904D01*
X35274251Y-47663474D01*
X35274250Y-54135619D01*
X27268899Y-62140971D01*
X27239829Y-62164828D01*
X27215972Y-62193898D01*
X27215971Y-62193899D01*
X27144605Y-62280858D01*
X27073849Y-62413235D01*
X27030277Y-62556872D01*
X27015564Y-62706250D01*
X27019251Y-62743683D01*
X27019251Y-65754250D01*
X26853750Y-65754250D01*
X26853750Y-58705197D01*
X28628158Y-58705197D01*
X28687436Y-58938812D01*
X28925625Y-59049559D01*
X29180843Y-59111711D01*
X29443283Y-59122876D01*
X29702857Y-59082629D01*
X29949592Y-58992514D01*
X30050064Y-58938812D01*
X30109342Y-58705197D01*
X29368750Y-57964605D01*
X28628158Y-58705197D01*
X26853750Y-58705197D01*
X26853750Y-57859533D01*
X28030874Y-57859533D01*
X28071121Y-58119107D01*
X28161236Y-58365842D01*
X28214938Y-58466314D01*
X28448553Y-58525592D01*
X29189145Y-57785000D01*
X29548355Y-57785000D01*
X30288947Y-58525592D01*
X30522562Y-58466314D01*
X30633309Y-58228125D01*
X30695461Y-57972907D01*
X30706626Y-57710467D01*
X30666379Y-57450893D01*
X30576264Y-57204158D01*
X30522562Y-57103686D01*
X30288947Y-57044408D01*
X29548355Y-57785000D01*
X29189145Y-57785000D01*
X28448553Y-57044408D01*
X28214938Y-57103686D01*
X28104191Y-57341875D01*
X28042039Y-57597093D01*
X28030874Y-57859533D01*
X26853750Y-57859533D01*
X26853750Y-50033662D01*
X28035250Y-50033662D01*
X28035250Y-50296338D01*
X28086496Y-50553968D01*
X28187018Y-50796649D01*
X28332953Y-51015057D01*
X28518693Y-51200797D01*
X28737101Y-51346732D01*
X28950198Y-51435000D01*
X28737101Y-51523268D01*
X28518693Y-51669203D01*
X28332953Y-51854943D01*
X28187018Y-52073351D01*
X28086496Y-52316032D01*
X28035250Y-52573662D01*
X28035250Y-52836338D01*
X28086496Y-53093968D01*
X28187018Y-53336649D01*
X28332953Y-53555057D01*
X28518693Y-53740797D01*
X28737101Y-53886732D01*
X28950198Y-53975000D01*
X28737101Y-54063268D01*
X28518693Y-54209203D01*
X28332953Y-54394943D01*
X28187018Y-54613351D01*
X28086496Y-54856032D01*
X28035250Y-55113662D01*
X28035250Y-55376338D01*
X28086496Y-55633968D01*
X28187018Y-55876649D01*
X28332953Y-56095057D01*
X28518693Y-56280797D01*
X28737101Y-56426732D01*
X28954320Y-56516707D01*
X28787908Y-56577486D01*
X28687436Y-56631188D01*
X28628158Y-56864803D01*
X29368750Y-57605395D01*
X30109342Y-56864803D01*
X30050064Y-56631188D01*
X29811875Y-56520441D01*
X29788128Y-56514658D01*
X30000399Y-56426732D01*
X30218807Y-56280797D01*
X30404547Y-56095057D01*
X30550482Y-55876649D01*
X30651004Y-55633968D01*
X30702250Y-55376338D01*
X30702250Y-55113662D01*
X30651004Y-54856032D01*
X30550482Y-54613351D01*
X30404547Y-54394943D01*
X30218807Y-54209203D01*
X30000399Y-54063268D01*
X29787302Y-53975000D01*
X30000399Y-53886732D01*
X30218807Y-53740797D01*
X30404547Y-53555057D01*
X30550482Y-53336649D01*
X30651004Y-53093968D01*
X30702250Y-52836338D01*
X30702250Y-52573662D01*
X30651004Y-52316032D01*
X30550482Y-52073351D01*
X30404547Y-51854943D01*
X30218807Y-51669203D01*
X30000399Y-51523268D01*
X29787302Y-51435000D01*
X30000399Y-51346732D01*
X30218807Y-51200797D01*
X30404547Y-51015057D01*
X30550482Y-50796649D01*
X30651004Y-50553968D01*
X30702250Y-50296338D01*
X30702250Y-50033662D01*
X30651004Y-49776032D01*
X30550482Y-49533351D01*
X30404547Y-49314943D01*
X30218807Y-49129203D01*
X30000399Y-48983268D01*
X29757718Y-48882746D01*
X29500088Y-48831500D01*
X29237412Y-48831500D01*
X28979782Y-48882746D01*
X28737101Y-48983268D01*
X28518693Y-49129203D01*
X28332953Y-49314943D01*
X28187018Y-49533351D01*
X28086496Y-49776032D01*
X28035250Y-50033662D01*
X26853750Y-50033662D01*
X26853750Y-46863528D01*
X26919869Y-46189193D01*
X27106335Y-45571587D01*
X27409211Y-45001963D01*
X27816951Y-44502025D01*
X28314043Y-44090794D01*
X28881532Y-43783955D01*
X29497824Y-43593180D01*
X30170301Y-43522500D01*
X72198971Y-43522500D01*
X72410788Y-43543269D01*
%TA.AperFunction,Conductor*%
D17*
G36*
X72410788Y-43543269D02*
G01*
X72583487Y-43595410D01*
X72742768Y-43680102D01*
X72882569Y-43794119D01*
X72997558Y-43933117D01*
X73083360Y-44091805D01*
X73136705Y-44264135D01*
X73158750Y-44473880D01*
X73158750Y-45211331D01*
X73155557Y-45243750D01*
X73155571Y-45243892D01*
X73153098Y-45269114D01*
X73145732Y-45293510D01*
X73133766Y-45316016D01*
X73117659Y-45335764D01*
X73098023Y-45352009D01*
X73075599Y-45364133D01*
X73051258Y-45371668D01*
X72995775Y-45377500D01*
X69882419Y-45377500D01*
X69850000Y-45374307D01*
X69732161Y-45385913D01*
X69720617Y-45387050D01*
X69596207Y-45424790D01*
X69481550Y-45486075D01*
X69381052Y-45568552D01*
X69298575Y-45669050D01*
X69237290Y-45783707D01*
X69199550Y-45908117D01*
X69186807Y-46037500D01*
X69190000Y-46069919D01*
X69190001Y-61880071D01*
X69186807Y-61912500D01*
X69199550Y-62041883D01*
X69237290Y-62166293D01*
X69298575Y-62280950D01*
X69381052Y-62381448D01*
X69481550Y-62463925D01*
X69596207Y-62525210D01*
X69720617Y-62562950D01*
X69817581Y-62572500D01*
X69850000Y-62575693D01*
X69882419Y-62572500D01*
X72992721Y-62572500D01*
X73050362Y-62578152D01*
X73074763Y-62585519D01*
X73097265Y-62597483D01*
X73117014Y-62613591D01*
X73133259Y-62633227D01*
X73145383Y-62655651D01*
X73152918Y-62679992D01*
X73158750Y-62735476D01*
X73158750Y-65754250D01*
X42437820Y-65754250D01*
X42494142Y-65724145D01*
X42610172Y-65628922D01*
X42634034Y-65599846D01*
X44168603Y-64065278D01*
X44197672Y-64041422D01*
X44292895Y-63925392D01*
X44363652Y-63793015D01*
X44407224Y-63649378D01*
X44418250Y-63537426D01*
X44418250Y-63537424D01*
X44421936Y-63500001D01*
X44418250Y-63462574D01*
X44418250Y-62903473D01*
X44619648Y-62768904D01*
X44830154Y-62558398D01*
X44926250Y-62414580D01*
X45022346Y-62558398D01*
X45232852Y-62768904D01*
X45480381Y-62934297D01*
X45755420Y-63048222D01*
X46047400Y-63106300D01*
X46345100Y-63106300D01*
X46637080Y-63048222D01*
X46912119Y-62934297D01*
X47159648Y-62768904D01*
X47370154Y-62558398D01*
X47466250Y-62414580D01*
X47562346Y-62558398D01*
X47772852Y-62768904D01*
X48020381Y-62934297D01*
X48295420Y-63048222D01*
X48587400Y-63106300D01*
X48885100Y-63106300D01*
X49177080Y-63048222D01*
X49452119Y-62934297D01*
X49699648Y-62768904D01*
X49910154Y-62558398D01*
X50006250Y-62414580D01*
X50102346Y-62558398D01*
X50312852Y-62768904D01*
X50560381Y-62934297D01*
X50835420Y-63048222D01*
X51127400Y-63106300D01*
X51425100Y-63106300D01*
X51717080Y-63048222D01*
X51992119Y-62934297D01*
X52239648Y-62768904D01*
X52450154Y-62558398D01*
X52546250Y-62414580D01*
X52642346Y-62558398D01*
X52852852Y-62768904D01*
X53100381Y-62934297D01*
X53375420Y-63048222D01*
X53667400Y-63106300D01*
X53965100Y-63106300D01*
X54257080Y-63048222D01*
X54532119Y-62934297D01*
X54779648Y-62768904D01*
X54906383Y-62642169D01*
X55488687Y-62642169D01*
X55569504Y-62893929D01*
X55838029Y-63022457D01*
X56126469Y-63096129D01*
X56423741Y-63112113D01*
X56718417Y-63069796D01*
X56999177Y-62970802D01*
X57142996Y-62893929D01*
X57223813Y-62642169D01*
X58028687Y-62642169D01*
X58109504Y-62893929D01*
X58378029Y-63022457D01*
X58666469Y-63096129D01*
X58963741Y-63112113D01*
X59258417Y-63069796D01*
X59539177Y-62970802D01*
X59682996Y-62893929D01*
X59763813Y-62642169D01*
X58896250Y-61774605D01*
X58028687Y-62642169D01*
X57223813Y-62642169D01*
X56356250Y-61774605D01*
X55488687Y-62642169D01*
X54906383Y-62642169D01*
X54990154Y-62558398D01*
X55099205Y-62395191D01*
X55309081Y-62462563D01*
X56176645Y-61595000D01*
X56535855Y-61595000D01*
X57403419Y-62462563D01*
X57626250Y-62391032D01*
X57849081Y-62462563D01*
X58716645Y-61595000D01*
X59075855Y-61595000D01*
X59943419Y-62462563D01*
X60153295Y-62395191D01*
X60262346Y-62558398D01*
X60472852Y-62768904D01*
X60720381Y-62934297D01*
X60995420Y-63048222D01*
X61287400Y-63106300D01*
X61585100Y-63106300D01*
X61877080Y-63048222D01*
X62152119Y-62934297D01*
X62399648Y-62768904D01*
X62497094Y-62671458D01*
X62510448Y-62715480D01*
X62569413Y-62825794D01*
X62648765Y-62922485D01*
X62745456Y-63001837D01*
X62855770Y-63060802D01*
X62975468Y-63097112D01*
X63099950Y-63109372D01*
X64852550Y-63109372D01*
X64977032Y-63097112D01*
X65096730Y-63060802D01*
X65207044Y-63001837D01*
X65303735Y-62922485D01*
X65383087Y-62825794D01*
X65442052Y-62715480D01*
X65478362Y-62595782D01*
X65490622Y-62471300D01*
X65490622Y-60718700D01*
X65478362Y-60594218D01*
X65442052Y-60474520D01*
X65383087Y-60364206D01*
X65303735Y-60267515D01*
X65207044Y-60188163D01*
X65096730Y-60129198D01*
X64977032Y-60092888D01*
X64852550Y-60080628D01*
X63099950Y-60080628D01*
X62975468Y-60092888D01*
X62855770Y-60129198D01*
X62745456Y-60188163D01*
X62648765Y-60267515D01*
X62569413Y-60364206D01*
X62510448Y-60474520D01*
X62497094Y-60518542D01*
X62399648Y-60421096D01*
X62152119Y-60255703D01*
X61877080Y-60141778D01*
X61585100Y-60083700D01*
X61287400Y-60083700D01*
X60995420Y-60141778D01*
X60720381Y-60255703D01*
X60472852Y-60421096D01*
X60262346Y-60631602D01*
X60153295Y-60794809D01*
X59943419Y-60727437D01*
X59075855Y-61595000D01*
X58716645Y-61595000D01*
X57849081Y-60727437D01*
X57626250Y-60798968D01*
X57403419Y-60727437D01*
X56535855Y-61595000D01*
X56176645Y-61595000D01*
X55309081Y-60727437D01*
X55099205Y-60794809D01*
X54990154Y-60631602D01*
X54906383Y-60547831D01*
X55488687Y-60547831D01*
X56356250Y-61415395D01*
X57223813Y-60547831D01*
X58028687Y-60547831D01*
X58896250Y-61415395D01*
X59763813Y-60547831D01*
X59682996Y-60296071D01*
X59414471Y-60167543D01*
X59126031Y-60093871D01*
X58828759Y-60077887D01*
X58534083Y-60120204D01*
X58253323Y-60219198D01*
X58109504Y-60296071D01*
X58028687Y-60547831D01*
X57223813Y-60547831D01*
X57142996Y-60296071D01*
X56874471Y-60167543D01*
X56586031Y-60093871D01*
X56288759Y-60077887D01*
X55994083Y-60120204D01*
X55713323Y-60219198D01*
X55569504Y-60296071D01*
X55488687Y-60547831D01*
X54906383Y-60547831D01*
X54779648Y-60421096D01*
X54532119Y-60255703D01*
X54257080Y-60141778D01*
X53965100Y-60083700D01*
X53667400Y-60083700D01*
X53375420Y-60141778D01*
X53100381Y-60255703D01*
X52852852Y-60421096D01*
X52642346Y-60631602D01*
X52546250Y-60775420D01*
X52450154Y-60631602D01*
X52239648Y-60421096D01*
X51992119Y-60255703D01*
X51717080Y-60141778D01*
X51425100Y-60083700D01*
X51127400Y-60083700D01*
X50835420Y-60141778D01*
X50560381Y-60255703D01*
X50312852Y-60421096D01*
X50102346Y-60631602D01*
X50006250Y-60775420D01*
X49910154Y-60631602D01*
X49699648Y-60421096D01*
X49452119Y-60255703D01*
X49177080Y-60141778D01*
X48885100Y-60083700D01*
X48587400Y-60083700D01*
X48295420Y-60141778D01*
X48020381Y-60255703D01*
X47772852Y-60421096D01*
X47562346Y-60631602D01*
X47466250Y-60775420D01*
X47370154Y-60631602D01*
X47159648Y-60421096D01*
X46912119Y-60255703D01*
X46637080Y-60141778D01*
X46345100Y-60083700D01*
X46047400Y-60083700D01*
X45755420Y-60141778D01*
X45480381Y-60255703D01*
X45232852Y-60421096D01*
X45022346Y-60631602D01*
X44926250Y-60775420D01*
X44830154Y-60631602D01*
X44619648Y-60421096D01*
X44372119Y-60255703D01*
X44097080Y-60141778D01*
X43805100Y-60083700D01*
X43507400Y-60083700D01*
X43215420Y-60141778D01*
X42940381Y-60255703D01*
X42692852Y-60421096D01*
X42482346Y-60631602D01*
X42386250Y-60775420D01*
X42290154Y-60631602D01*
X42079648Y-60421096D01*
X41832119Y-60255703D01*
X41557080Y-60141778D01*
X41265100Y-60083700D01*
X40967400Y-60083700D01*
X40675420Y-60141778D01*
X40400381Y-60255703D01*
X40152852Y-60421096D01*
X39942346Y-60631602D01*
X39846250Y-60775420D01*
X39750154Y-60631602D01*
X39539648Y-60421096D01*
X39292119Y-60255703D01*
X39017080Y-60141778D01*
X38725100Y-60083700D01*
X38427400Y-60083700D01*
X38135420Y-60141778D01*
X37860381Y-60255703D01*
X37612852Y-60421096D01*
X37402346Y-60631602D01*
X37306250Y-60775420D01*
X37210154Y-60631602D01*
X36999648Y-60421096D01*
X36752119Y-60255703D01*
X36477080Y-60141778D01*
X36185100Y-60083700D01*
X35887400Y-60083700D01*
X35595420Y-60141778D01*
X35320381Y-60255703D01*
X35072852Y-60421096D01*
X34862346Y-60631602D01*
X34696953Y-60879131D01*
X34583028Y-61154170D01*
X34524950Y-61446150D01*
X34524950Y-61743850D01*
X34583028Y-62035830D01*
X34696953Y-62310869D01*
X34862346Y-62558398D01*
X35041948Y-62738000D01*
X34962422Y-62738000D01*
X34924999Y-62734314D01*
X34887576Y-62738000D01*
X34887574Y-62738000D01*
X34775622Y-62749026D01*
X34631985Y-62792598D01*
X34499608Y-62863355D01*
X34383578Y-62958578D01*
X34359721Y-62987648D01*
X32825149Y-64522221D01*
X32796079Y-64546078D01*
X32772222Y-64575148D01*
X32772221Y-64575149D01*
X32700855Y-64662108D01*
X32630099Y-64794485D01*
X32586527Y-64938122D01*
X32571814Y-65087500D01*
X32575501Y-65124933D01*
X32575501Y-65754250D01*
X30130750Y-65754250D01*
X30130750Y-64609380D01*
X41628603Y-53111528D01*
X41657672Y-53087672D01*
X41685022Y-53054346D01*
X41752895Y-52971643D01*
X41823651Y-52839266D01*
X41823652Y-52839265D01*
X41867224Y-52695628D01*
X41878250Y-52583676D01*
X41878250Y-52583673D01*
X41881936Y-52546250D01*
X41878250Y-52508827D01*
X41878250Y-47663473D01*
X42079648Y-47528904D01*
X42290154Y-47318398D01*
X42386250Y-47174580D01*
X42482346Y-47318398D01*
X42692852Y-47528904D01*
X42940381Y-47694297D01*
X43215420Y-47808222D01*
X43507400Y-47866300D01*
X43805100Y-47866300D01*
X44097080Y-47808222D01*
X44372119Y-47694297D01*
X44619648Y-47528904D01*
X44830154Y-47318398D01*
X44926250Y-47174580D01*
X45022346Y-47318398D01*
X45232852Y-47528904D01*
X45480381Y-47694297D01*
X45755420Y-47808222D01*
X46047400Y-47866300D01*
X46345100Y-47866300D01*
X46637080Y-47808222D01*
X46912119Y-47694297D01*
X47159648Y-47528904D01*
X47370154Y-47318398D01*
X47466250Y-47174580D01*
X47562346Y-47318398D01*
X47772852Y-47528904D01*
X48020381Y-47694297D01*
X48295420Y-47808222D01*
X48587400Y-47866300D01*
X48885100Y-47866300D01*
X49177080Y-47808222D01*
X49452119Y-47694297D01*
X49699648Y-47528904D01*
X49910154Y-47318398D01*
X50006250Y-47174580D01*
X50102346Y-47318398D01*
X50312852Y-47528904D01*
X50560381Y-47694297D01*
X50835420Y-47808222D01*
X51127400Y-47866300D01*
X51425100Y-47866300D01*
X51717080Y-47808222D01*
X51992119Y-47694297D01*
X52239648Y-47528904D01*
X52450154Y-47318398D01*
X52546250Y-47174580D01*
X52642346Y-47318398D01*
X52852852Y-47528904D01*
X53100381Y-47694297D01*
X53375420Y-47808222D01*
X53667400Y-47866300D01*
X53965100Y-47866300D01*
X54257080Y-47808222D01*
X54532119Y-47694297D01*
X54779648Y-47528904D01*
X54990154Y-47318398D01*
X55086250Y-47174580D01*
X55182346Y-47318398D01*
X55392852Y-47528904D01*
X55640381Y-47694297D01*
X55915420Y-47808222D01*
X56207400Y-47866300D01*
X56505100Y-47866300D01*
X56797080Y-47808222D01*
X57072119Y-47694297D01*
X57319648Y-47528904D01*
X57530154Y-47318398D01*
X57626250Y-47174580D01*
X57722346Y-47318398D01*
X57932852Y-47528904D01*
X58180381Y-47694297D01*
X58455420Y-47808222D01*
X58747400Y-47866300D01*
X59045100Y-47866300D01*
X59337080Y-47808222D01*
X59612119Y-47694297D01*
X59859648Y-47528904D01*
X59986383Y-47402169D01*
X60568687Y-47402169D01*
X60649504Y-47653929D01*
X60918029Y-47782457D01*
X61206469Y-47856129D01*
X61503741Y-47872113D01*
X61798417Y-47829796D01*
X62079177Y-47730802D01*
X62222996Y-47653929D01*
X62303813Y-47402169D01*
X61436250Y-46534605D01*
X60568687Y-47402169D01*
X59986383Y-47402169D01*
X60070154Y-47318398D01*
X60179205Y-47155191D01*
X60389081Y-47222563D01*
X61256645Y-46355000D01*
X61615855Y-46355000D01*
X62483419Y-47222563D01*
X62693295Y-47155191D01*
X62802346Y-47318398D01*
X63012852Y-47528904D01*
X63260381Y-47694297D01*
X63535420Y-47808222D01*
X63827400Y-47866300D01*
X64125100Y-47866300D01*
X64417080Y-47808222D01*
X64692119Y-47694297D01*
X64939648Y-47528904D01*
X65150154Y-47318398D01*
X65315547Y-47070869D01*
X65429472Y-46795830D01*
X65487550Y-46503850D01*
X65487550Y-46206150D01*
X65429472Y-45914170D01*
X65315547Y-45639131D01*
X65150154Y-45391602D01*
X64939648Y-45181096D01*
X64692119Y-45015703D01*
X64417080Y-44901778D01*
X64125100Y-44843700D01*
X63827400Y-44843700D01*
X63535420Y-44901778D01*
X63260381Y-45015703D01*
X63012852Y-45181096D01*
X62802346Y-45391602D01*
X62693295Y-45554809D01*
X62483419Y-45487437D01*
X61615855Y-46355000D01*
X61256645Y-46355000D01*
X60389081Y-45487437D01*
X60179205Y-45554809D01*
X60070154Y-45391602D01*
X59986383Y-45307831D01*
X60568687Y-45307831D01*
X61436250Y-46175395D01*
X62303813Y-45307831D01*
X62222996Y-45056071D01*
X61954471Y-44927543D01*
X61666031Y-44853871D01*
X61368759Y-44837887D01*
X61074083Y-44880204D01*
X60793323Y-44979198D01*
X60649504Y-45056071D01*
X60568687Y-45307831D01*
X59986383Y-45307831D01*
X59859648Y-45181096D01*
X59612119Y-45015703D01*
X59337080Y-44901778D01*
X59045100Y-44843700D01*
X58747400Y-44843700D01*
X58455420Y-44901778D01*
X58180381Y-45015703D01*
X57932852Y-45181096D01*
X57722346Y-45391602D01*
X57626250Y-45535420D01*
X57530154Y-45391602D01*
X57319648Y-45181096D01*
X57072119Y-45015703D01*
X56797080Y-44901778D01*
X56505100Y-44843700D01*
X56207400Y-44843700D01*
X55915420Y-44901778D01*
X55640381Y-45015703D01*
X55392852Y-45181096D01*
X55182346Y-45391602D01*
X55086250Y-45535420D01*
X54990154Y-45391602D01*
X54779648Y-45181096D01*
X54532119Y-45015703D01*
X54257080Y-44901778D01*
X53965100Y-44843700D01*
X53667400Y-44843700D01*
X53375420Y-44901778D01*
X53100381Y-45015703D01*
X52852852Y-45181096D01*
X52642346Y-45391602D01*
X52546250Y-45535420D01*
X52450154Y-45391602D01*
X52239648Y-45181096D01*
X51992119Y-45015703D01*
X51717080Y-44901778D01*
X51425100Y-44843700D01*
X51127400Y-44843700D01*
X50835420Y-44901778D01*
X50560381Y-45015703D01*
X50312852Y-45181096D01*
X50102346Y-45391602D01*
X50006250Y-45535420D01*
X49910154Y-45391602D01*
X49699648Y-45181096D01*
X49452119Y-45015703D01*
X49177080Y-44901778D01*
X48885100Y-44843700D01*
X48587400Y-44843700D01*
X48295420Y-44901778D01*
X48020381Y-45015703D01*
X47772852Y-45181096D01*
X47562346Y-45391602D01*
X47466250Y-45535420D01*
X47370154Y-45391602D01*
X47159648Y-45181096D01*
X46912119Y-45015703D01*
X46637080Y-44901778D01*
X46345100Y-44843700D01*
X46047400Y-44843700D01*
X45755420Y-44901778D01*
X45480381Y-45015703D01*
X45232852Y-45181096D01*
X45022346Y-45391602D01*
X44926250Y-45535420D01*
X44830154Y-45391602D01*
X44619648Y-45181096D01*
X44372119Y-45015703D01*
X44097080Y-44901778D01*
X43805100Y-44843700D01*
X43507400Y-44843700D01*
X43215420Y-44901778D01*
X42940381Y-45015703D01*
X42692852Y-45181096D01*
X42482346Y-45391602D01*
X42386250Y-45535420D01*
X42290154Y-45391602D01*
X42079648Y-45181096D01*
X41832119Y-45015703D01*
X41557080Y-44901778D01*
X41265100Y-44843700D01*
X40967400Y-44843700D01*
X40675420Y-44901778D01*
X40400381Y-45015703D01*
X40152852Y-45181096D01*
X39942346Y-45391602D01*
X39846250Y-45535420D01*
X39750154Y-45391602D01*
X39539648Y-45181096D01*
X39292119Y-45015703D01*
X39017080Y-44901778D01*
X38725100Y-44843700D01*
X38427400Y-44843700D01*
X38135420Y-44901778D01*
X37860381Y-45015703D01*
X37612852Y-45181096D01*
X37402346Y-45391602D01*
X37306250Y-45535420D01*
X37210154Y-45391602D01*
X36999648Y-45181096D01*
X36752119Y-45015703D01*
X36477080Y-44901778D01*
X36185100Y-44843700D01*
X35887400Y-44843700D01*
X35595420Y-44901778D01*
X35320381Y-45015703D01*
X35072852Y-45181096D01*
X34862346Y-45391602D01*
X34696953Y-45639131D01*
X34583028Y-45914170D01*
X34524950Y-46206150D01*
X34524950Y-46503850D01*
X34583028Y-46795830D01*
X34696953Y-47070869D01*
X34862346Y-47318398D01*
X35072852Y-47528904D01*
X35274251Y-47663474D01*
X35274250Y-54135619D01*
X27268899Y-62140971D01*
X27239829Y-62164828D01*
X27215972Y-62193898D01*
X27215971Y-62193899D01*
X27144605Y-62280858D01*
X27073849Y-62413235D01*
X27030277Y-62556872D01*
X27015564Y-62706250D01*
X27019251Y-62743683D01*
X27019251Y-65754250D01*
X26853750Y-65754250D01*
X26853750Y-58705197D01*
X28628158Y-58705197D01*
X28687436Y-58938812D01*
X28925625Y-59049559D01*
X29180843Y-59111711D01*
X29443283Y-59122876D01*
X29702857Y-59082629D01*
X29949592Y-58992514D01*
X30050064Y-58938812D01*
X30109342Y-58705197D01*
X29368750Y-57964605D01*
X28628158Y-58705197D01*
X26853750Y-58705197D01*
X26853750Y-57859533D01*
X28030874Y-57859533D01*
X28071121Y-58119107D01*
X28161236Y-58365842D01*
X28214938Y-58466314D01*
X28448553Y-58525592D01*
X29189145Y-57785000D01*
X29548355Y-57785000D01*
X30288947Y-58525592D01*
X30522562Y-58466314D01*
X30633309Y-58228125D01*
X30695461Y-57972907D01*
X30706626Y-57710467D01*
X30666379Y-57450893D01*
X30576264Y-57204158D01*
X30522562Y-57103686D01*
X30288947Y-57044408D01*
X29548355Y-57785000D01*
X29189145Y-57785000D01*
X28448553Y-57044408D01*
X28214938Y-57103686D01*
X28104191Y-57341875D01*
X28042039Y-57597093D01*
X28030874Y-57859533D01*
X26853750Y-57859533D01*
X26853750Y-50033662D01*
X28035250Y-50033662D01*
X28035250Y-50296338D01*
X28086496Y-50553968D01*
X28187018Y-50796649D01*
X28332953Y-51015057D01*
X28518693Y-51200797D01*
X28737101Y-51346732D01*
X28950198Y-51435000D01*
X28737101Y-51523268D01*
X28518693Y-51669203D01*
X28332953Y-51854943D01*
X28187018Y-52073351D01*
X28086496Y-52316032D01*
X28035250Y-52573662D01*
X28035250Y-52836338D01*
X28086496Y-53093968D01*
X28187018Y-53336649D01*
X28332953Y-53555057D01*
X28518693Y-53740797D01*
X28737101Y-53886732D01*
X28950198Y-53975000D01*
X28737101Y-54063268D01*
X28518693Y-54209203D01*
X28332953Y-54394943D01*
X28187018Y-54613351D01*
X28086496Y-54856032D01*
X28035250Y-55113662D01*
X28035250Y-55376338D01*
X28086496Y-55633968D01*
X28187018Y-55876649D01*
X28332953Y-56095057D01*
X28518693Y-56280797D01*
X28737101Y-56426732D01*
X28954320Y-56516707D01*
X28787908Y-56577486D01*
X28687436Y-56631188D01*
X28628158Y-56864803D01*
X29368750Y-57605395D01*
X30109342Y-56864803D01*
X30050064Y-56631188D01*
X29811875Y-56520441D01*
X29788128Y-56514658D01*
X30000399Y-56426732D01*
X30218807Y-56280797D01*
X30404547Y-56095057D01*
X30550482Y-55876649D01*
X30651004Y-55633968D01*
X30702250Y-55376338D01*
X30702250Y-55113662D01*
X30651004Y-54856032D01*
X30550482Y-54613351D01*
X30404547Y-54394943D01*
X30218807Y-54209203D01*
X30000399Y-54063268D01*
X29787302Y-53975000D01*
X30000399Y-53886732D01*
X30218807Y-53740797D01*
X30404547Y-53555057D01*
X30550482Y-53336649D01*
X30651004Y-53093968D01*
X30702250Y-52836338D01*
X30702250Y-52573662D01*
X30651004Y-52316032D01*
X30550482Y-52073351D01*
X30404547Y-51854943D01*
X30218807Y-51669203D01*
X30000399Y-51523268D01*
X29787302Y-51435000D01*
X30000399Y-51346732D01*
X30218807Y-51200797D01*
X30404547Y-51015057D01*
X30550482Y-50796649D01*
X30651004Y-50553968D01*
X30702250Y-50296338D01*
X30702250Y-50033662D01*
X30651004Y-49776032D01*
X30550482Y-49533351D01*
X30404547Y-49314943D01*
X30218807Y-49129203D01*
X30000399Y-48983268D01*
X29757718Y-48882746D01*
X29500088Y-48831500D01*
X29237412Y-48831500D01*
X28979782Y-48882746D01*
X28737101Y-48983268D01*
X28518693Y-49129203D01*
X28332953Y-49314943D01*
X28187018Y-49533351D01*
X28086496Y-49776032D01*
X28035250Y-50033662D01*
X26853750Y-50033662D01*
X26853750Y-46863528D01*
X26919869Y-46189193D01*
X27106335Y-45571587D01*
X27409211Y-45001963D01*
X27816951Y-44502025D01*
X28314043Y-44090794D01*
X28881532Y-43783955D01*
X29497824Y-43593180D01*
X30170301Y-43522500D01*
X72198971Y-43522500D01*
X72410788Y-43543269D01*
G37*
%TD.AperFunction*%
%TD*%
M02*
