M48
; DRILL file {KiCad (5.1.9)-1} date 06/02/21 16:01:42
; FORMAT={-:-/ absolute / metric / decimal}
; #@! TF.CreationDate,2021-06-02T16:01:42+02:00
; #@! TF.GenerationSoftware,Kicad,Pcbnew,(5.1.9)-1
; #@! TF.FileFunction,Plated,1,2,PTH
FMAT,2
METRIC
T1C0.800
T2C0.813
T3C1.092
T4C1.100
%
G90
G05
T1
X31.75Y-68.263
X31.75Y-80.169
X31.75Y-92.075
X31.75Y-103.981
X31.75Y-115.887
X31.75Y-127.794
X36.83Y-68.263
X36.83Y-80.169
X36.83Y-92.075
X36.83Y-103.981
X36.83Y-115.887
X36.83Y-127.794
X47.625Y-68.263
X47.625Y-80.169
X47.625Y-92.075
X47.625Y-103.981
X47.625Y-115.887
X47.625Y-127.794
X52.705Y-68.263
X52.705Y-80.169
X52.705Y-92.075
X52.705Y-103.981
X52.705Y-115.887
X52.705Y-127.794
X63.5Y-68.263
X63.5Y-80.169
X63.5Y-92.075
X63.5Y-103.981
X63.5Y-115.887
X63.5Y-127.794
X68.58Y-68.263
X68.58Y-80.169
X68.58Y-92.075
X68.58Y-103.981
X68.58Y-115.887
X68.58Y-127.794
T2
X29.369Y-50.165
X29.369Y-52.705
X29.369Y-55.245
X29.369Y-57.785
T3
X36.036Y-46.355
X36.036Y-61.595
X38.576Y-46.355
X38.576Y-61.595
X41.116Y-46.355
X41.116Y-61.595
X43.656Y-46.355
X43.656Y-61.595
X46.196Y-46.355
X46.196Y-61.595
X48.736Y-46.355
X48.736Y-61.595
X51.276Y-46.355
X51.276Y-61.595
X53.816Y-46.355
X53.816Y-61.595
X56.356Y-46.355
X56.356Y-61.595
X58.896Y-46.355
X58.896Y-61.595
X61.436Y-46.355
X61.436Y-61.595
X63.976Y-46.355
X63.976Y-61.595
T4
X30.956Y-71.438
X30.956Y-75.938
X30.956Y-83.344
X30.956Y-87.844
X30.956Y-95.25
X30.956Y-99.75
X30.956Y-107.156
X30.956Y-111.656
X30.956Y-119.062
X30.956Y-123.562
X30.956Y-130.969
X30.956Y-135.469
X37.456Y-71.438
X37.456Y-75.938
X37.456Y-83.344
X37.456Y-87.844
X37.456Y-95.25
X37.456Y-99.75
X37.456Y-107.156
X37.456Y-111.656
X37.456Y-119.062
X37.456Y-123.562
X37.456Y-130.969
X37.456Y-135.469
X46.831Y-71.438
X46.831Y-75.938
X46.831Y-83.344
X46.831Y-87.844
X46.831Y-95.25
X46.831Y-99.75
X46.831Y-107.156
X46.831Y-111.656
X46.831Y-119.062
X46.831Y-123.562
X46.831Y-130.969
X46.831Y-135.469
X53.331Y-71.438
X53.331Y-75.938
X53.331Y-83.344
X53.331Y-87.844
X53.331Y-95.25
X53.331Y-99.75
X53.331Y-107.156
X53.331Y-111.656
X53.331Y-119.062
X53.331Y-123.562
X53.331Y-130.969
X53.331Y-135.469
X62.706Y-71.438
X62.706Y-75.938
X62.706Y-83.344
X62.706Y-87.844
X62.706Y-95.25
X62.706Y-99.75
X62.706Y-107.156
X62.706Y-111.656
X62.706Y-119.062
X62.706Y-123.562
X62.706Y-130.969
X62.706Y-135.469
X69.206Y-71.438
X69.206Y-75.938
X69.206Y-83.344
X69.206Y-87.844
X69.206Y-95.25
X69.206Y-99.75
X69.206Y-107.156
X69.206Y-111.656
X69.206Y-119.062
X69.206Y-123.562
X69.206Y-130.969
X69.206Y-135.469
T0
M30
