%TF.GenerationSoftware,KiCad,Pcbnew,(5.1.9)-1*%
%TF.CreationDate,2021-06-02T16:01:08+02:00*%
%TF.ProjectId,LATE-9,4c415445-2d39-42e6-9b69-6361645f7063,rev?*%
%TF.SameCoordinates,Original*%
%TF.FileFunction,Copper,L1,Top*%
%TF.FilePolarity,Positive*%
%FSLAX46Y46*%
G04 Gerber Fmt 4.6, Leading zero omitted, Abs format (unit mm)*
G04 Created by KiCad (PCBNEW (5.1.9)-1) date 2021-06-02 16:01:08*
%MOMM*%
%LPD*%
G01*
G04 APERTURE LIST*
%TA.AperFunction,ComponentPad*%
%ADD10C,1.752600*%
%TD*%
%TA.AperFunction,ComponentPad*%
%ADD11R,1.752600X1.752600*%
%TD*%
%TA.AperFunction,ComponentPad*%
%ADD12C,2.000000*%
%TD*%
%TA.AperFunction,ComponentPad*%
%ADD13C,1.397000*%
%TD*%
%TA.AperFunction,ComponentPad*%
%ADD14O,1.600000X1.600000*%
%TD*%
%TA.AperFunction,ComponentPad*%
%ADD15R,1.600000X1.600000*%
%TD*%
%TA.AperFunction,Conductor*%
%ADD16C,0.254000*%
%TD*%
G04 APERTURE END LIST*
D10*
%TO.P,U1,24*%
%TO.N,Net-(U1-Pad24)*%
X63976250Y-46355000D03*
%TO.P,U1,12*%
%TO.N,COL0*%
X36036250Y-61595000D03*
%TO.P,U1,23*%
%TO.N,GND*%
X61436250Y-46355000D03*
%TO.P,U1,22*%
%TO.N,Net-(U1-Pad22)*%
X58896250Y-46355000D03*
%TO.P,U1,21*%
%TO.N,VCC*%
X56356250Y-46355000D03*
%TO.P,U1,20*%
%TO.N,Net-(U1-Pad20)*%
X53816250Y-46355000D03*
%TO.P,U1,19*%
%TO.N,Net-(U1-Pad19)*%
X51276250Y-46355000D03*
%TO.P,U1,18*%
%TO.N,Net-(U1-Pad18)*%
X48736250Y-46355000D03*
%TO.P,U1,17*%
%TO.N,Net-(U1-Pad17)*%
X46196250Y-46355000D03*
%TO.P,U1,16*%
%TO.N,Net-(U1-Pad16)*%
X43656250Y-46355000D03*
%TO.P,U1,15*%
%TO.N,ROW3*%
X41116250Y-46355000D03*
%TO.P,U1,14*%
%TO.N,ROW4*%
X38576250Y-46355000D03*
%TO.P,U1,13*%
%TO.N,ROW5*%
X36036250Y-46355000D03*
%TO.P,U1,11*%
%TO.N,ROW0*%
X38576250Y-61595000D03*
%TO.P,U1,10*%
%TO.N,ROW1*%
X41116250Y-61595000D03*
%TO.P,U1,9*%
%TO.N,ROW2*%
X43656250Y-61595000D03*
%TO.P,U1,8*%
%TO.N,COL1*%
X46196250Y-61595000D03*
%TO.P,U1,7*%
%TO.N,COL2*%
X48736250Y-61595000D03*
%TO.P,U1,6*%
%TO.N,SCL*%
X51276250Y-61595000D03*
%TO.P,U1,5*%
%TO.N,SDA*%
X53816250Y-61595000D03*
%TO.P,U1,4*%
%TO.N,GND*%
X56356250Y-61595000D03*
%TO.P,U1,3*%
X58896250Y-61595000D03*
%TO.P,U1,2*%
%TO.N,Net-(U1-Pad2)*%
X61436250Y-61595000D03*
D11*
%TO.P,U1,1*%
%TO.N,Net-(U1-Pad1)*%
X63976250Y-61595000D03*
%TD*%
D12*
%TO.P,SW18,3*%
%TO.N,Net-(SW17-Pad4)*%
X62706250Y-135468750D03*
%TO.P,SW18,1*%
%TO.N,Net-(SW18-Pad1)*%
X62706250Y-130968750D03*
%TO.P,SW18,4*%
%TO.N,Net-(SW18-Pad4)*%
X69206250Y-135468750D03*
%TO.P,SW18,2*%
%TO.N,Net-(D18-Pad2)*%
X69206250Y-130968750D03*
%TD*%
%TO.P,SW17,3*%
%TO.N,Net-(SW16-Pad4)*%
X46831250Y-135468750D03*
%TO.P,SW17,1*%
%TO.N,Net-(SW17-Pad1)*%
X46831250Y-130968750D03*
%TO.P,SW17,4*%
%TO.N,Net-(SW17-Pad4)*%
X53331250Y-135468750D03*
%TO.P,SW17,2*%
%TO.N,Net-(D17-Pad2)*%
X53331250Y-130968750D03*
%TD*%
%TO.P,SW16,3*%
%TO.N,ROW5*%
X30956250Y-135468750D03*
%TO.P,SW16,1*%
%TO.N,Net-(SW16-Pad1)*%
X30956250Y-130968750D03*
%TO.P,SW16,4*%
%TO.N,Net-(SW16-Pad4)*%
X37456250Y-135468750D03*
%TO.P,SW16,2*%
%TO.N,Net-(D16-Pad2)*%
X37456250Y-130968750D03*
%TD*%
%TO.P,SW15,3*%
%TO.N,Net-(SW14-Pad4)*%
X62706250Y-123562500D03*
%TO.P,SW15,1*%
%TO.N,Net-(SW15-Pad1)*%
X62706250Y-119062500D03*
%TO.P,SW15,4*%
%TO.N,Net-(SW15-Pad4)*%
X69206250Y-123562500D03*
%TO.P,SW15,2*%
%TO.N,Net-(D15-Pad2)*%
X69206250Y-119062500D03*
%TD*%
%TO.P,SW14,3*%
%TO.N,Net-(SW13-Pad4)*%
X46831250Y-123562500D03*
%TO.P,SW14,1*%
%TO.N,Net-(SW14-Pad1)*%
X46831250Y-119062500D03*
%TO.P,SW14,4*%
%TO.N,Net-(SW14-Pad4)*%
X53331250Y-123562500D03*
%TO.P,SW14,2*%
%TO.N,Net-(D14-Pad2)*%
X53331250Y-119062500D03*
%TD*%
%TO.P,SW13,3*%
%TO.N,ROW4*%
X30956250Y-123562500D03*
%TO.P,SW13,1*%
%TO.N,Net-(SW13-Pad1)*%
X30956250Y-119062500D03*
%TO.P,SW13,4*%
%TO.N,Net-(SW13-Pad4)*%
X37456250Y-123562500D03*
%TO.P,SW13,2*%
%TO.N,Net-(D13-Pad2)*%
X37456250Y-119062500D03*
%TD*%
%TO.P,SW12,3*%
%TO.N,Net-(SW11-Pad4)*%
X62706250Y-111656250D03*
%TO.P,SW12,1*%
%TO.N,Net-(SW12-Pad1)*%
X62706250Y-107156250D03*
%TO.P,SW12,4*%
%TO.N,Net-(SW12-Pad4)*%
X69206250Y-111656250D03*
%TO.P,SW12,2*%
%TO.N,Net-(D12-Pad2)*%
X69206250Y-107156250D03*
%TD*%
%TO.P,SW11,3*%
%TO.N,Net-(SW10-Pad4)*%
X46831250Y-111656250D03*
%TO.P,SW11,1*%
%TO.N,Net-(SW11-Pad1)*%
X46831250Y-107156250D03*
%TO.P,SW11,4*%
%TO.N,Net-(SW11-Pad4)*%
X53331250Y-111656250D03*
%TO.P,SW11,2*%
%TO.N,Net-(D11-Pad2)*%
X53331250Y-107156250D03*
%TD*%
%TO.P,SW10,3*%
%TO.N,ROW3*%
X30956250Y-111656250D03*
%TO.P,SW10,1*%
%TO.N,Net-(SW10-Pad1)*%
X30956250Y-107156250D03*
%TO.P,SW10,4*%
%TO.N,Net-(SW10-Pad4)*%
X37456250Y-111656250D03*
%TO.P,SW10,2*%
%TO.N,Net-(D10-Pad2)*%
X37456250Y-107156250D03*
%TD*%
%TO.P,SW9,3*%
%TO.N,Net-(SW8-Pad4)*%
X62706250Y-99750000D03*
%TO.P,SW9,1*%
%TO.N,Net-(SW9-Pad1)*%
X62706250Y-95250000D03*
%TO.P,SW9,4*%
%TO.N,Net-(SW9-Pad4)*%
X69206250Y-99750000D03*
%TO.P,SW9,2*%
%TO.N,Net-(D9-Pad2)*%
X69206250Y-95250000D03*
%TD*%
%TO.P,SW8,3*%
%TO.N,Net-(SW7-Pad4)*%
X46831250Y-99750000D03*
%TO.P,SW8,1*%
%TO.N,Net-(SW8-Pad1)*%
X46831250Y-95250000D03*
%TO.P,SW8,4*%
%TO.N,Net-(SW8-Pad4)*%
X53331250Y-99750000D03*
%TO.P,SW8,2*%
%TO.N,Net-(D8-Pad2)*%
X53331250Y-95250000D03*
%TD*%
%TO.P,SW7,3*%
%TO.N,ROW2*%
X30956250Y-99750000D03*
%TO.P,SW7,1*%
%TO.N,Net-(SW7-Pad1)*%
X30956250Y-95250000D03*
%TO.P,SW7,4*%
%TO.N,Net-(SW7-Pad4)*%
X37456250Y-99750000D03*
%TO.P,SW7,2*%
%TO.N,Net-(D7-Pad2)*%
X37456250Y-95250000D03*
%TD*%
%TO.P,SW6,3*%
%TO.N,Net-(SW5-Pad4)*%
X62706250Y-87843750D03*
%TO.P,SW6,1*%
%TO.N,Net-(SW6-Pad1)*%
X62706250Y-83343750D03*
%TO.P,SW6,4*%
%TO.N,Net-(SW6-Pad4)*%
X69206250Y-87843750D03*
%TO.P,SW6,2*%
%TO.N,Net-(D6-Pad2)*%
X69206250Y-83343750D03*
%TD*%
%TO.P,SW5,3*%
%TO.N,Net-(SW4-Pad4)*%
X46831250Y-87843750D03*
%TO.P,SW5,1*%
%TO.N,Net-(SW5-Pad1)*%
X46831250Y-83343750D03*
%TO.P,SW5,4*%
%TO.N,Net-(SW5-Pad4)*%
X53331250Y-87843750D03*
%TO.P,SW5,2*%
%TO.N,Net-(D5-Pad2)*%
X53331250Y-83343750D03*
%TD*%
%TO.P,SW4,3*%
%TO.N,ROW1*%
X30956250Y-87843750D03*
%TO.P,SW4,1*%
%TO.N,Net-(SW4-Pad1)*%
X30956250Y-83343750D03*
%TO.P,SW4,4*%
%TO.N,Net-(SW4-Pad4)*%
X37456250Y-87843750D03*
%TO.P,SW4,2*%
%TO.N,Net-(D4-Pad2)*%
X37456250Y-83343750D03*
%TD*%
%TO.P,SW3,3*%
%TO.N,Net-(SW2-Pad4)*%
X62706250Y-75937500D03*
%TO.P,SW3,1*%
%TO.N,Net-(SW3-Pad1)*%
X62706250Y-71437500D03*
%TO.P,SW3,4*%
%TO.N,Net-(SW3-Pad4)*%
X69206250Y-75937500D03*
%TO.P,SW3,2*%
%TO.N,Net-(D3-Pad2)*%
X69206250Y-71437500D03*
%TD*%
%TO.P,SW2,3*%
%TO.N,Net-(SW1-Pad4)*%
X46831250Y-75937500D03*
%TO.P,SW2,1*%
%TO.N,Net-(SW2-Pad1)*%
X46831250Y-71437500D03*
%TO.P,SW2,4*%
%TO.N,Net-(SW2-Pad4)*%
X53331250Y-75937500D03*
%TO.P,SW2,2*%
%TO.N,Net-(D2-Pad2)*%
X53331250Y-71437500D03*
%TD*%
%TO.P,SW1,3*%
%TO.N,ROW0*%
X30956250Y-75937500D03*
%TO.P,SW1,1*%
%TO.N,Net-(SW1-Pad1)*%
X30956250Y-71437500D03*
%TO.P,SW1,4*%
%TO.N,Net-(SW1-Pad4)*%
X37456250Y-75937500D03*
%TO.P,SW1,2*%
%TO.N,Net-(D1-Pad2)*%
X37456250Y-71437500D03*
%TD*%
D13*
%TO.P,OL1,1*%
%TO.N,SDA*%
X29368750Y-50165000D03*
%TO.P,OL1,2*%
%TO.N,SCL*%
X29368750Y-52705000D03*
%TO.P,OL1,3*%
%TO.N,VCC*%
X29368750Y-55245000D03*
%TO.P,OL1,4*%
%TO.N,GND*%
X29368750Y-57785000D03*
%TD*%
D14*
%TO.P,D18,2*%
%TO.N,Net-(D18-Pad2)*%
X68580000Y-127793750D03*
D15*
%TO.P,D18,1*%
%TO.N,COL2*%
X63500000Y-127793750D03*
%TD*%
D14*
%TO.P,D17,2*%
%TO.N,Net-(D17-Pad2)*%
X52705000Y-127793750D03*
D15*
%TO.P,D17,1*%
%TO.N,COL1*%
X47625000Y-127793750D03*
%TD*%
D14*
%TO.P,D16,2*%
%TO.N,Net-(D16-Pad2)*%
X36830000Y-127793750D03*
D15*
%TO.P,D16,1*%
%TO.N,COL0*%
X31750000Y-127793750D03*
%TD*%
D14*
%TO.P,D15,2*%
%TO.N,Net-(D15-Pad2)*%
X68580000Y-115887500D03*
D15*
%TO.P,D15,1*%
%TO.N,COL2*%
X63500000Y-115887500D03*
%TD*%
D14*
%TO.P,D14,2*%
%TO.N,Net-(D14-Pad2)*%
X52705000Y-115887500D03*
D15*
%TO.P,D14,1*%
%TO.N,COL1*%
X47625000Y-115887500D03*
%TD*%
D14*
%TO.P,D13,2*%
%TO.N,Net-(D13-Pad2)*%
X36830000Y-115887500D03*
D15*
%TO.P,D13,1*%
%TO.N,COL0*%
X31750000Y-115887500D03*
%TD*%
D14*
%TO.P,D12,2*%
%TO.N,Net-(D12-Pad2)*%
X68580000Y-103981250D03*
D15*
%TO.P,D12,1*%
%TO.N,COL2*%
X63500000Y-103981250D03*
%TD*%
D14*
%TO.P,D11,2*%
%TO.N,Net-(D11-Pad2)*%
X52705000Y-103981250D03*
D15*
%TO.P,D11,1*%
%TO.N,COL1*%
X47625000Y-103981250D03*
%TD*%
D14*
%TO.P,D10,2*%
%TO.N,Net-(D10-Pad2)*%
X36830000Y-103981250D03*
D15*
%TO.P,D10,1*%
%TO.N,COL0*%
X31750000Y-103981250D03*
%TD*%
D14*
%TO.P,D9,2*%
%TO.N,Net-(D9-Pad2)*%
X68580000Y-92075000D03*
D15*
%TO.P,D9,1*%
%TO.N,COL2*%
X63500000Y-92075000D03*
%TD*%
D14*
%TO.P,D8,2*%
%TO.N,Net-(D8-Pad2)*%
X52705000Y-92075000D03*
D15*
%TO.P,D8,1*%
%TO.N,COL1*%
X47625000Y-92075000D03*
%TD*%
D14*
%TO.P,D7,2*%
%TO.N,Net-(D7-Pad2)*%
X36830000Y-92075000D03*
D15*
%TO.P,D7,1*%
%TO.N,COL0*%
X31750000Y-92075000D03*
%TD*%
D14*
%TO.P,D6,2*%
%TO.N,Net-(D6-Pad2)*%
X68580000Y-80168750D03*
D15*
%TO.P,D6,1*%
%TO.N,COL2*%
X63500000Y-80168750D03*
%TD*%
D14*
%TO.P,D5,2*%
%TO.N,Net-(D5-Pad2)*%
X52705000Y-80168750D03*
D15*
%TO.P,D5,1*%
%TO.N,COL1*%
X47625000Y-80168750D03*
%TD*%
D14*
%TO.P,D4,2*%
%TO.N,Net-(D4-Pad2)*%
X36830000Y-80168750D03*
D15*
%TO.P,D4,1*%
%TO.N,COL0*%
X31750000Y-80168750D03*
%TD*%
D14*
%TO.P,D3,2*%
%TO.N,Net-(D3-Pad2)*%
X68580000Y-68262500D03*
D15*
%TO.P,D3,1*%
%TO.N,COL2*%
X63500000Y-68262500D03*
%TD*%
D14*
%TO.P,D2,2*%
%TO.N,Net-(D2-Pad2)*%
X52705000Y-68262500D03*
D15*
%TO.P,D2,1*%
%TO.N,COL1*%
X47625000Y-68262500D03*
%TD*%
D14*
%TO.P,D1,2*%
%TO.N,Net-(D1-Pad2)*%
X36830000Y-68262500D03*
D15*
%TO.P,D1,1*%
%TO.N,COL0*%
X31750000Y-68262500D03*
%TD*%
D16*
%TO.N,Net-(D1-Pad2)*%
X38893750Y-70000000D02*
X37456250Y-71437500D01*
X38893750Y-69056250D02*
X38893750Y-70000000D01*
X38100000Y-68262500D02*
X38893750Y-69056250D01*
X36830000Y-68262500D02*
X38100000Y-68262500D01*
%TO.N,Net-(D2-Pad2)*%
X54768750Y-70000000D02*
X53331250Y-71437500D01*
X54768750Y-69056250D02*
X54768750Y-70000000D01*
X53975000Y-68262500D02*
X54768750Y-69056250D01*
X52705000Y-68262500D02*
X53975000Y-68262500D01*
%TO.N,Net-(D3-Pad2)*%
X70643750Y-70000000D02*
X69206250Y-71437500D01*
X70643750Y-69056250D02*
X70643750Y-70000000D01*
X69850000Y-68262500D02*
X70643750Y-69056250D01*
X68580000Y-68262500D02*
X69850000Y-68262500D01*
%TO.N,Net-(D4-Pad2)*%
X38893750Y-81906250D02*
X37456250Y-83343750D01*
X38893750Y-80962500D02*
X38893750Y-81906250D01*
X38100000Y-80168750D02*
X38893750Y-80962500D01*
X36830000Y-80168750D02*
X38100000Y-80168750D01*
%TO.N,Net-(D5-Pad2)*%
X54768750Y-81906250D02*
X53331250Y-83343750D01*
X54768750Y-80962500D02*
X54768750Y-81906250D01*
X53975000Y-80168750D02*
X54768750Y-80962500D01*
X52705000Y-80168750D02*
X53975000Y-80168750D01*
%TO.N,Net-(D6-Pad2)*%
X70643750Y-81906250D02*
X69206250Y-83343750D01*
X70643750Y-80962500D02*
X70643750Y-81906250D01*
X69850000Y-80168750D02*
X70643750Y-80962500D01*
X68580000Y-80168750D02*
X69850000Y-80168750D01*
%TO.N,Net-(D7-Pad2)*%
X38893750Y-93812500D02*
X37456250Y-95250000D01*
X38893750Y-92868750D02*
X38893750Y-93812500D01*
X38100000Y-92075000D02*
X38893750Y-92868750D01*
X36830000Y-92075000D02*
X38100000Y-92075000D01*
%TO.N,Net-(D8-Pad2)*%
X54768750Y-93812500D02*
X53331250Y-95250000D01*
X54768750Y-92868750D02*
X54768750Y-93812500D01*
X53975000Y-92075000D02*
X54768750Y-92868750D01*
X52705000Y-92075000D02*
X53975000Y-92075000D01*
%TO.N,COL1*%
X46037500Y-68262500D02*
X44450000Y-66675000D01*
X47625000Y-68262500D02*
X46037500Y-68262500D01*
X46037500Y-80168750D02*
X47625000Y-80168750D01*
X44450000Y-78581250D02*
X46037500Y-80168750D01*
X46037500Y-92075000D02*
X47625000Y-92075000D01*
X44450000Y-90487500D02*
X46037500Y-92075000D01*
X46037500Y-103981250D02*
X47625000Y-103981250D01*
X44450000Y-102393750D02*
X46037500Y-103981250D01*
X47625000Y-115887500D02*
X46037500Y-115887500D01*
X46037500Y-115887500D02*
X44450000Y-114300000D01*
X47625000Y-127793750D02*
X46037500Y-127793750D01*
X46037500Y-127793750D02*
X44450000Y-126206250D01*
X44450000Y-66675000D02*
X44450000Y-126206250D01*
X46196250Y-62547500D02*
X46196250Y-61595000D01*
X44450000Y-64293750D02*
X46196250Y-62547500D01*
X44450000Y-66675000D02*
X44450000Y-64293750D01*
%TO.N,COL0*%
X30162500Y-68262500D02*
X28575000Y-66675000D01*
X31750000Y-68262500D02*
X30162500Y-68262500D01*
X30162500Y-80168750D02*
X31750000Y-80168750D01*
X28575000Y-78581250D02*
X30162500Y-80168750D01*
X30162500Y-92075000D02*
X31750000Y-92075000D01*
X28575000Y-90487500D02*
X30162500Y-92075000D01*
X30162500Y-103981250D02*
X31750000Y-103981250D01*
X28575000Y-102393750D02*
X30162500Y-103981250D01*
X31750000Y-115887500D02*
X30162500Y-115887500D01*
X30162500Y-115887500D02*
X28575000Y-114300000D01*
X31750000Y-127793750D02*
X30162500Y-127793750D01*
X30162500Y-127793750D02*
X28575000Y-126206250D01*
X28575000Y-126206250D02*
X28575000Y-66675000D01*
X28575000Y-66675000D02*
X28575000Y-65087500D01*
X28575000Y-64293750D02*
X31273750Y-61595000D01*
X31273750Y-61595000D02*
X34448750Y-61595000D01*
X36036250Y-61595000D02*
X34448750Y-61595000D01*
X28575000Y-65087500D02*
X28575000Y-64293750D01*
%TO.N,COL2*%
X63500000Y-68262500D02*
X61912500Y-68262500D01*
X61912500Y-68262500D02*
X60325000Y-66675000D01*
X61912500Y-80168750D02*
X63500000Y-80168750D01*
X60325000Y-78581250D02*
X61912500Y-80168750D01*
X61912500Y-92075000D02*
X63500000Y-92075000D01*
X60325000Y-90487500D02*
X61912500Y-92075000D01*
X61912500Y-103981250D02*
X63500000Y-103981250D01*
X60325000Y-102393750D02*
X61912500Y-103981250D01*
X63500000Y-115887500D02*
X61912500Y-115887500D01*
X61912500Y-115887500D02*
X60325000Y-114300000D01*
X63500000Y-127793750D02*
X61912500Y-127793750D01*
X61912500Y-127793750D02*
X60325000Y-126206250D01*
X60325000Y-126206250D02*
X60325000Y-66675000D01*
X60325000Y-66675000D02*
X58737500Y-65087500D01*
X51435000Y-64293750D02*
X48736250Y-61595000D01*
X58737500Y-65087500D02*
X57943750Y-64293750D01*
X57943750Y-64293750D02*
X51435000Y-64293750D01*
%TO.N,Net-(D9-Pad2)*%
X70643750Y-93812500D02*
X69206250Y-95250000D01*
X70643750Y-92868750D02*
X70643750Y-93812500D01*
X69850000Y-92075000D02*
X70643750Y-92868750D01*
X68580000Y-92075000D02*
X69850000Y-92075000D01*
%TO.N,Net-(D10-Pad2)*%
X38893750Y-105718750D02*
X37456250Y-107156250D01*
X38893750Y-104775000D02*
X38893750Y-105718750D01*
X38100000Y-103981250D02*
X38893750Y-104775000D01*
X36830000Y-103981250D02*
X38100000Y-103981250D01*
%TO.N,Net-(D11-Pad2)*%
X54768750Y-105718750D02*
X53331250Y-107156250D01*
X54768750Y-104775000D02*
X54768750Y-105718750D01*
X53975000Y-103981250D02*
X54768750Y-104775000D01*
X52705000Y-103981250D02*
X53975000Y-103981250D01*
%TO.N,Net-(D12-Pad2)*%
X70643750Y-105718750D02*
X69206250Y-107156250D01*
X70643750Y-104775000D02*
X70643750Y-105718750D01*
X69850000Y-103981250D02*
X70643750Y-104775000D01*
X68580000Y-103981250D02*
X69850000Y-103981250D01*
%TO.N,VCC*%
X56356250Y-46037500D02*
X56356250Y-46355000D01*
X54768750Y-44450000D02*
X56356250Y-46037500D01*
X31750000Y-44450000D02*
X54768750Y-44450000D01*
X27781250Y-48418750D02*
X31750000Y-44450000D01*
X27781250Y-53689250D02*
X27781250Y-48418750D01*
X29337000Y-55245000D02*
X27781250Y-53689250D01*
%TO.N,SCL*%
X49212500Y-59531250D02*
X51276250Y-61595000D01*
X38100000Y-59531250D02*
X49212500Y-59531250D01*
X31273750Y-52705000D02*
X38100000Y-59531250D01*
X29337000Y-52705000D02*
X31273750Y-52705000D01*
%TO.N,SDA*%
X29337000Y-50165000D02*
X31115000Y-50165000D01*
X31115000Y-50165000D02*
X38893750Y-57943750D01*
X38893750Y-57943750D02*
X48418750Y-57943750D01*
X48418750Y-57943750D02*
X48577500Y-57943750D01*
X50165000Y-57943750D02*
X53816250Y-61595000D01*
X48418750Y-57943750D02*
X50165000Y-57943750D01*
%TO.N,Net-(D13-Pad2)*%
X38893750Y-117625000D02*
X37456250Y-119062500D01*
X38893750Y-116681250D02*
X38893750Y-117625000D01*
X38100000Y-115887500D02*
X38893750Y-116681250D01*
X36830000Y-115887500D02*
X38100000Y-115887500D01*
%TO.N,Net-(D14-Pad2)*%
X54768750Y-117625000D02*
X53331250Y-119062500D01*
X54768750Y-116681250D02*
X54768750Y-117625000D01*
X53975000Y-115887500D02*
X54768750Y-116681250D01*
X52705000Y-115887500D02*
X53975000Y-115887500D01*
%TO.N,Net-(D15-Pad2)*%
X70643750Y-117625000D02*
X69206250Y-119062500D01*
X70643750Y-116681250D02*
X70643750Y-117625000D01*
X69850000Y-115887500D02*
X70643750Y-116681250D01*
X68580000Y-115887500D02*
X69850000Y-115887500D01*
%TO.N,Net-(D16-Pad2)*%
X38893750Y-129531250D02*
X37456250Y-130968750D01*
X38893750Y-128587500D02*
X38893750Y-129531250D01*
X38100000Y-127793750D02*
X38893750Y-128587500D01*
X36830000Y-127793750D02*
X38100000Y-127793750D01*
%TO.N,Net-(D17-Pad2)*%
X54768750Y-129531250D02*
X53331250Y-130968750D01*
X54768750Y-128587500D02*
X54768750Y-129531250D01*
X53975000Y-127793750D02*
X54768750Y-128587500D01*
X52705000Y-127793750D02*
X53975000Y-127793750D01*
%TO.N,Net-(D18-Pad2)*%
X70643750Y-129531250D02*
X69206250Y-130968750D01*
X70643750Y-128587500D02*
X70643750Y-129531250D01*
X69850000Y-127793750D02*
X70643750Y-128587500D01*
X68580000Y-127793750D02*
X69850000Y-127793750D01*
%TD*%
M02*
